<svg width="742" height="555" fill="none" xmlns="http://www.w3.org/2000/svg"><g clip-path="url(#clip0)"><path d="M723.93.75H25.77C16.282.75 8.59 8.442 8.59 17.93v519.58c0 9.488 7.692 17.18 17.18 17.18h698.16c9.49 0 17.18-7.692 17.18-17.18V17.93c0-9.488-7.69-17.18-17.18-17.18z" fill="#416848"/><path opacity=".6" d="M723.93.75H25.77C16.282.75 8.59 8.442 8.59 17.93v519.58c0 9.488 7.692 17.18 17.18 17.18h698.16c9.49 0 17.18-7.692 17.18-17.18V17.93c0-9.488-7.69-17.18-17.18-17.18z" fill="#fff"/><path d="M715.66.75H17.5C8.012.75.32 8.442.32 17.93v519.58c0 9.488 7.692 17.18 17.18 17.18h698.16c9.49 0 17.18-7.692 17.18-17.18V17.93c0-9.488-7.69-17.18-17.18-17.18z" fill="#fff"/><path d="M17.5.75h39.86V554.7H17.5A17.18 17.18 0 01.32 537.52V17.93A17.18 17.18 0 0117.5.75z" fill="#416848"/><path d="M40.66 27.309H17.02a3.357 3.357 0 00-3.36 3.355 3.357 3.357 0 003.36 3.355h23.64a3.357 3.357 0 003.36-3.355 3.357 3.357 0 00-3.36-3.355zM35.05 75.1H22.64a2.93 2.93 0 00-2.93 2.93v12.41a2.93 2.93 0 002.93 2.93h12.41a2.93 2.93 0 002.93-2.93V78.03a2.93 2.93 0 00-2.93-2.93z" fill="#fff"/><path d="M35.05 134.42H22.64a2.93 2.93 0 00-2.93 2.93v12.41a2.93 2.93 0 002.93 2.93h12.41a2.93 2.93 0 002.93-2.93v-12.41a2.93 2.93 0 00-2.93-2.93zM35.05 193.75H22.64a2.93 2.93 0 00-2.93 2.93v12.41a2.93 2.93 0 002.93 2.93h12.41a2.93 2.93 0 002.93-2.93v-12.41a2.93 2.93 0 00-2.93-2.93zM35.05 253.068H22.64a2.93 2.93 0 00-2.93 2.93v12.41a2.93 2.93 0 002.93 2.93h12.41a2.93 2.93 0 002.93-2.93v-12.41a2.93 2.93 0 00-2.93-2.93z" fill="#416848"/><path opacity=".4" d="M35.05 134.42H22.64a2.93 2.93 0 00-2.93 2.93v12.41a2.93 2.93 0 002.93 2.93h12.41a2.93 2.93 0 002.93-2.93v-12.41a2.93 2.93 0 00-2.93-2.93zM35.05 193.75H22.64a2.93 2.93 0 00-2.93 2.93v12.41a2.93 2.93 0 002.93 2.93h12.41a2.93 2.93 0 002.93-2.93v-12.41a2.93 2.93 0 00-2.93-2.93zM35.05 253.068H22.64a2.93 2.93 0 00-2.93 2.93v12.41a2.93 2.93 0 002.93 2.93h12.41a2.93 2.93 0 002.93-2.93v-12.41a2.93 2.93 0 00-2.93-2.93z" fill="#fff"/><path d="M148.68 24.529H79.94a5.82 5.82 0 000 11.64h68.74a5.82 5.82 0 100-11.64z" fill="#868A91"/><path d="M709.46 19.09h-60.69a3.44 3.44 0 00-3.44 3.44v15.64c0 1.9 1.54 3.44 3.44 3.44h60.69c1.9 0 3.44-1.54 3.44-3.44V22.53c0-1.9-1.54-3.44-3.44-3.44z" fill="#416848"/><path d="M623.39 19.09h-60.689a3.44 3.44 0 00-3.44 3.44v15.64c0 1.9 1.54 3.44 3.44 3.44h60.689c1.9 0 3.44-1.54 3.44-3.44V22.53c0-1.9-1.54-3.44-3.44-3.44z" stroke="#4D61FC" stroke-miterlimit="10"/><path d="M44.58 512.745c0-8.69-7.044-15.735-15.735-15.735-8.69 0-15.735 7.045-15.735 15.735s7.045 15.735 15.735 15.735c8.691 0 15.735-7.045 15.735-15.735z" fill="#fff"/><path d="M28.85 513.208a4.547 4.547 0 01-4.53-4.12l-.3-3.27a4.544 4.544 0 012.676-4.61 4.558 4.558 0 011.844-.39h.61a4.56 4.56 0 011.845.39 4.535 4.535 0 012.675 4.61l-.3 3.27a4.549 4.549 0 01-4.52 4.12zM42.171 521.12a15.057 15.057 0 01-2.2 2.76 15.743 15.743 0 01-12.89 4.511 15.742 15.742 0 01-11.56-7.271 7.81 7.81 0 017.63-6.12h11.39a7.809 7.809 0 017.63 6.12z" fill="#416848"/><g opacity=".4" fill="#fff"><path opacity=".4" d="M28.85 513.208a4.547 4.547 0 01-4.53-4.12l-.3-3.27a4.544 4.544 0 012.676-4.61 4.558 4.558 0 011.844-.39h.61a4.56 4.56 0 011.845.39 4.535 4.535 0 012.675 4.61l-.3 3.27a4.549 4.549 0 01-4.52 4.12zM42.171 521.118a15.057 15.057 0 01-2.2 2.76 15.743 15.743 0 01-12.89 4.511 15.742 15.742 0 01-11.56-7.271 7.81 7.81 0 017.63-6.12h11.39a7.809 7.809 0 017.63 6.12z"/></g><path d="M269.11 64.24h-186a8.99 8.99 0 00-8.99 8.99v98.37a8.99 8.99 0 008.99 8.99h186a8.99 8.99 0 008.99-8.99V73.23a8.99 8.99 0 00-8.99-8.99z" fill="#416848"/><path opacity=".5" d="M269.11 64.24h-186a8.99 8.99 0 00-8.99 8.99v98.37a8.99 8.99 0 008.99 8.99h186a8.99 8.99 0 008.99-8.99V73.23a8.99 8.99 0 00-8.99-8.99z" fill="#fff"/><path d="M215.821 130.219h-114.69a4.49 4.49 0 00-4.49 4.49v14.01a4.49 4.49 0 004.49 4.49h114.69a4.49 4.49 0 004.49-4.49v-14.01a4.49 4.49 0 00-4.49-4.49z" fill="#fff"/><path d="M240.51 99.988h-93.84a3.93 3.93 0 000 7.86h93.84a3.93 3.93 0 100-7.86z" fill="#416848"/><path opacity=".3" d="M240.51 99.988h-93.84a3.93 3.93 0 000 7.86h93.84a3.93 3.93 0 100-7.86z" fill="#fff"/><path d="M112.691 119.969c8.864 0 16.05-7.186 16.05-16.05s-7.186-16.05-16.05-16.05c-8.865 0-16.05 7.186-16.05 16.05s7.185 16.05 16.05 16.05z" fill="#416848"/><path opacity=".3" d="M112.691 119.969c8.864 0 16.05-7.186 16.05-16.05s-7.186-16.05-16.05-16.05c-8.865 0-16.05 7.186-16.05 16.05s7.185 16.05 16.05 16.05z" fill="#fff"/><path d="M486.441 64.449h-185.66a8.97 8.97 0 00-8.97 8.97v98.19a8.97 8.97 0 008.97 8.97h185.66a8.97 8.97 0 008.97-8.97v-98.19a8.97 8.97 0 00-8.97-8.97z" fill="#416848"/><path d="M433.25 130.309H318.77a4.48 4.48 0 00-4.48 4.48v13.99a4.48 4.48 0 004.48 4.48h114.48a4.48 4.48 0 004.48-4.48v-13.99a4.48 4.48 0 00-4.48-4.48z" fill="#fff"/><path d="M457.891 100.139h-93.67a3.92 3.92 0 100 7.84h93.67a3.92 3.92 0 100-7.84z" fill="#416848"/><path opacity=".3" d="M457.891 100.139h-93.67a3.92 3.92 0 100 7.84h93.67a3.92 3.92 0 100-7.84z" fill="#fff"/><path d="M330.31 120.089c8.848 0 16.02-7.173 16.02-16.02 0-8.848-7.172-16.02-16.02-16.02-8.848 0-16.02 7.172-16.02 16.02 0 8.847 7.172 16.02 16.02 16.02z" fill="#416848"/><path opacity=".3" d="M330.31 120.089c8.848 0 16.02-7.173 16.02-16.02 0-8.848-7.172-16.02-16.02-16.02-8.848 0-16.02 7.172-16.02 16.02 0 8.847 7.172 16.02 16.02 16.02z" fill="#fff"/><path d="M703.94 64.449H518.281a8.97 8.97 0 00-8.97 8.97v98.19a8.97 8.97 0 008.97 8.97H703.94c4.95 0 8.97-4.016 8.97-8.97v-98.19c0-4.954-4.02-8.97-8.97-8.97z" fill="#B2B6BB"/><path d="M650.75 130.309H536.27a4.48 4.48 0 00-4.48 4.48v13.99a4.48 4.48 0 004.48 4.48h114.48c2.47 0 4.48-2.006 4.48-4.48v-13.99c0-2.475-2.01-4.48-4.48-4.48z" fill="#fff"/><path d="M675.39 100.139h-93.67a3.923 3.923 0 00-3.92 3.92c0 2.165 1.76 3.92 3.92 3.92h93.67c2.17 0 3.92-1.755 3.92-3.92s-1.75-3.92-3.92-3.92z" fill="#416848"/><path d="M675.39 100.139h-93.67a3.923 3.923 0 00-3.92 3.92c0 2.165 1.76 3.92 3.92 3.92h93.67c2.17 0 3.92-1.755 3.92-3.92s-1.75-3.92-3.92-3.92zM547.81 120.089c8.848 0 16.02-7.173 16.02-16.02 0-8.848-7.172-16.02-16.02-16.02-8.848 0-16.02 7.172-16.02 16.02 0 8.847 7.172 16.02 16.02 16.02z" fill="#868A91"/><path d="M703.94 194.33H518.281a8.97 8.97 0 00-8.97 8.97v240.6a8.97 8.97 0 008.97 8.97H703.94c4.95 0 8.97-4.016 8.97-8.97V203.3c0-4.954-4.02-8.97-8.97-8.97z" fill="#416848"/><path opacity=".85" d="M703.94 194.33H518.281a8.97 8.97 0 00-8.97 8.97v240.6a8.97 8.97 0 008.97 8.97H703.94c4.95 0 8.97-4.016 8.97-8.97V203.3c0-4.954-4.02-8.97-8.97-8.97z" fill="#fff"/><path d="M657.47 258.18l-.92-1-17.24 16.09.92 1A39.855 39.855 0 01651 301.602a39.847 39.847 0 01-10.88 27.287 39.88 39.88 0 01-26.63 12.411 39.864 39.864 0 01-27.9-9.21l-1-.87-15.079 18.11 1 .87a63.431 63.431 0 0044.389 14.65 63.445 63.445 0 0059.72-63.148 63.461 63.461 0 00-17.11-43.502l-.04-.02z" fill="#416848"/><path opacity=".5" d="M657.47 258.18l-.92-1-17.24 16.09.92 1A39.855 39.855 0 01651 301.602a39.847 39.847 0 01-10.88 27.287 39.88 39.88 0 01-26.63 12.411 39.864 39.864 0 01-27.9-9.21l-1-.87-15.079 18.11 1 .87a63.431 63.431 0 0044.389 14.65 63.445 63.445 0 0059.72-63.148 63.461 63.461 0 00-17.11-43.502l-.04-.02z" fill="#fff"/><path d="M657.47 258.179a63.242 63.242 0 00-28-17.42l-1.3-.37-1.28-.36a63.412 63.412 0 00-59.8 15.75l-1 .93 16.35 17 1-.94a39.636 39.636 0 0127.64-11.14c3.63-.001 7.25.49 10.75 1.46a39.859 39.859 0 0118.36 11.2l.93 1 17.24-16.09-.89-1.02z" fill="#416848"/><path d="M585.59 332.088a39.88 39.88 0 01-11.427-45.564 39.914 39.914 0 019.297-13.776l1-.93-16.349-17-1 .94a63.403 63.403 0 003.39 94.42l1 .86 15.129-18.04-1.04-.91z" fill="#61656D"/><path d="M625.86 292.139h-29.5a5.07 5.07 0 00-5.07 5.07v8.51c0 2.8 2.27 5.07 5.07 5.07h29.5c2.8 0 5.07-2.27 5.07-5.07v-8.51c0-2.8-2.27-5.07-5.07-5.07z" fill="#416848"/><path opacity=".4" d="M625.86 292.139h-29.5a5.07 5.07 0 00-5.07 5.07v8.51c0 2.8 2.27 5.07 5.07 5.07h29.5c2.8 0 5.07-2.27 5.07-5.07v-8.51c0-2.8-2.27-5.07-5.07-5.07z" fill="#fff"/><path d="M224.14 466.309H85.71a4.29 4.29 0 00-4.29 4.29v59.21a4.29 4.29 0 004.29 4.29h138.43a4.29 4.29 0 004.29-4.29v-59.21a4.29 4.29 0 00-4.29-4.29zM385.63 466.309H247.2a4.29 4.29 0 00-4.29 4.29v59.21a4.29 4.29 0 004.29 4.29h138.43a4.29 4.29 0 004.29-4.29v-59.21a4.29 4.29 0 00-4.29-4.29zM547.13 466.309H408.7a4.29 4.29 0 00-4.29 4.29v59.21a4.29 4.29 0 004.29 4.29h138.43a4.29 4.29 0 004.29-4.29v-59.21a4.29 4.29 0 00-4.29-4.29zM708.62 466.309H570.19a4.29 4.29 0 00-4.29 4.29v59.21a4.29 4.29 0 004.29 4.29h138.43a4.29 4.29 0 004.29-4.29v-59.21a4.29 4.29 0 00-4.29-4.29z" fill="#416848"/><path opacity=".85" d="M224.14 466.309H85.71a4.29 4.29 0 00-4.29 4.29v59.21a4.29 4.29 0 004.29 4.29h138.43a4.29 4.29 0 004.29-4.29v-59.21a4.29 4.29 0 00-4.29-4.29zM385.63 466.309H247.2a4.29 4.29 0 00-4.29 4.29v59.21a4.29 4.29 0 004.29 4.29h138.43a4.29 4.29 0 004.29-4.29v-59.21a4.29 4.29 0 00-4.29-4.29zM547.13 466.309H408.7a4.29 4.29 0 00-4.29 4.29v59.21a4.29 4.29 0 004.29 4.29h138.43a4.29 4.29 0 004.29-4.29v-59.21a4.29 4.29 0 00-4.29-4.29zM708.62 466.309H570.19a4.29 4.29 0 00-4.29 4.29v59.21a4.29 4.29 0 004.29 4.29h138.43a4.29 4.29 0 004.29-4.29v-59.21a4.29 4.29 0 00-4.29-4.29z" fill="#fff"/><path d="M486.33 194.33H85.83a8.97 8.97 0 00-8.97 8.97v240.54a8.97 8.97 0 008.97 8.97h400.5a8.97 8.97 0 008.97-8.97V203.3a8.97 8.97 0 00-8.97-8.97z" fill="#416848"/><path opacity=".85" d="M486.33 194.33H85.83a8.97 8.97 0 00-8.97 8.97v240.54a8.97 8.97 0 008.97 8.97h400.5a8.97 8.97 0 008.97-8.97V203.3a8.97 8.97 0 00-8.97-8.97z" fill="#fff"/><path opacity=".2" d="M495.3 381.109H77.08v.91H495.3v-.91zM495.3 311.379H77.08v.91H495.3v-.91zM495.3 241.639H77.08v.91H495.3v-.91z" fill="#416848"/><path opacity=".4" d="M77.08 346.619s59.17 22.06 101.29 0c42.12-22.06 87.59-72.4 149.44-20.06 51.44 43.54 75.89-52.34 110-52.34s57.5 64.7 57.5 64.7v104.92a9 9 0 01-9 9H85.84a9 9 0 01-9-9l.24-97.22z" fill="#416848"/><path d="M133.211 357.329a158.596 158.596 0 01-21.41-1.53 182.762 182.762 0 01-35-8.33l.64-1.71a181.805 181.805 0 0034.65 8.24c18.16 2.49 44.32 3.1 65.86-8.18 7.86-4.12 15.74-9.16 24.07-14.5 35.45-22.69 75.62-48.41 126.38-5.45 9.72 8.22 18.84 11.82 27.9 11 16.81-1.51 30.45-18.07 43.65-34.08 12.5-15.16 24.3-29.49 37.85-29.49 34.34 0 57.39 62.65 58.36 65.31l-1.72.62a193.592 193.592 0 00-15.9-32.2c-16.49-26.37-31.26-31.9-40.74-31.9-12.69 0-24.22 14-36.44 28.83-13.43 16.3-27.32 33.15-44.9 34.73-9.55.86-19.13-2.88-29.24-11.43-22.22-18.81-44.22-25.86-67.38-21.54-20.41 3.81-38.93 15.67-56.83 27.13-8.37 5.36-16.28 10.42-24.21 14.57-9.31 4.88-24.12 9.91-45.59 9.91z" fill="#416848"/><path d="M285.7 307.379a2.96 2.96 0 100-5.92 2.96 2.96 0 000 5.92zM355.82 340.92a2.96 2.96 0 100-5.92 2.96 2.96 0 000 5.92zM439.24 277.18a2.96 2.96 0 100-5.92 2.96 2.96 0 000 5.92zM216.05 327a2.96 2.96 0 100-5.92 2.96 2.96 0 000 5.92zM146.601 358.619a2.96 2.96 0 100-5.92 2.96 2.96 0 000 5.92zM77.08 350.01a2.96 2.96 0 100-5.92 2.96 2.96 0 000 5.92zM495.3 340.92a2.96 2.96 0 100-5.92 2.96 2.96 0 000 5.92z" fill="#416848"/><path d="M220.271 209.398H95.341a5.82 5.82 0 100 11.64h124.93a5.82 5.82 0 100-11.64zM607.13 209.398h-78.299a5.82 5.82 0 100 11.64h78.299c3.22 0 5.82-2.605 5.82-5.82 0-3.214-2.6-5.82-5.82-5.82z" fill="#868A91"/><path d="M531.201 381.109h-6.51a3.05 3.05 0 00-3.05 3.05v6.51a3.05 3.05 0 003.05 3.05h6.51a3.05 3.05 0 003.05-3.05v-6.51a3.05 3.05 0 00-3.05-3.05z" fill="#416848"/><path opacity=".5" d="M531.201 381.109h-6.51a3.05 3.05 0 00-3.05 3.05v6.51a3.05 3.05 0 003.05 3.05h6.51a3.05 3.05 0 003.05-3.05v-6.51a3.05 3.05 0 00-3.05-3.05z" fill="#fff"/><path d="M531.201 404.539h-6.51a3.05 3.05 0 00-3.05 3.05v6.51a3.05 3.05 0 003.05 3.05h6.51a3.05 3.05 0 003.05-3.05v-6.51a3.05 3.05 0 00-3.05-3.05z" fill="#416848"/><path d="M531.201 427.969h-6.51a3.05 3.05 0 00-3.05 3.05v6.51a3.05 3.05 0 003.05 3.05h6.51a3.05 3.05 0 003.05-3.05v-6.51a3.05 3.05 0 00-3.05-3.05z" fill="#61656D"/><path d="M633.9 384.359h-87.6a3.06 3.06 0 00-3.06 3.06v.01a3.06 3.06 0 003.06 3.06h87.6a3.06 3.06 0 003.06-3.06v-.01a3.06 3.06 0 00-3.06-3.06zM633.9 407.789h-87.6a3.06 3.06 0 00-3.06 3.06v.01a3.06 3.06 0 003.06 3.06h87.6a3.06 3.06 0 003.06-3.06v-.01a3.06 3.06 0 00-3.06-3.06zM633.9 431.219h-87.6a3.06 3.06 0 00-3.06 3.06v.01a3.06 3.06 0 003.06 3.06h87.6a3.06 3.06 0 003.06-3.06v-.01a3.06 3.06 0 00-3.06-3.06z" fill="#416848"/><path opacity=".5" d="M633.9 384.359h-87.6a3.06 3.06 0 00-3.06 3.06v.01a3.06 3.06 0 003.06 3.06h87.6a3.06 3.06 0 003.06-3.06v-.01a3.06 3.06 0 00-3.06-3.06zM633.9 407.789h-87.6a3.06 3.06 0 00-3.06 3.06v.01a3.06 3.06 0 003.06 3.06h87.6a3.06 3.06 0 003.06-3.06v-.01a3.06 3.06 0 00-3.06-3.06zM633.9 431.219h-87.6a3.06 3.06 0 00-3.06 3.06v.01a3.06 3.06 0 003.06 3.06h87.6a3.06 3.06 0 003.06-3.06v-.01a3.06 3.06 0 00-3.06-3.06z" fill="#fff"/><path d="M697.52 384.359h-24.13a3.06 3.06 0 00-3.06 3.06v.01a3.06 3.06 0 003.06 3.06h24.13a3.06 3.06 0 003.06-3.06v-.01a3.06 3.06 0 00-3.06-3.06zM697.52 407.789h-24.13a3.06 3.06 0 00-3.06 3.06v.01a3.06 3.06 0 003.06 3.06h24.13a3.06 3.06 0 003.06-3.06v-.01a3.06 3.06 0 00-3.06-3.06zM697.52 431.219h-24.13a3.06 3.06 0 00-3.06 3.06v.01a3.06 3.06 0 003.06 3.06h24.13a3.06 3.06 0 003.06-3.06v-.01a3.06 3.06 0 00-3.06-3.06zM202.19 486.27H99.23a3.03 3.03 0 100 6.06h102.96a3.03 3.03 0 000-6.06z" fill="#416848"/><path opacity=".15" d="M138.63 504.92h-38.14a4.29 4.29 0 00-4.29 4.29v7.08a4.29 4.29 0 004.29 4.29h38.14a4.29 4.29 0 004.29-4.29v-7.08a4.29 4.29 0 00-4.29-4.29z" fill="#fff"/><path opacity=".5" d="M202.19 486.27H99.23a3.03 3.03 0 100 6.06h102.96a3.03 3.03 0 000-6.06z" fill="#fff"/><path d="M367.9 486.27H264.94a3.03 3.03 0 100 6.06H367.9a3.03 3.03 0 000-6.06z" fill="#416848"/><path opacity=".15" d="M304.34 504.92H266.2a4.29 4.29 0 00-4.29 4.29v7.08a4.29 4.29 0 004.29 4.29h38.14a4.29 4.29 0 004.29-4.29v-7.08a4.29 4.29 0 00-4.29-4.29z" fill="#fff"/><path opacity=".5" d="M367.9 486.27H264.94a3.03 3.03 0 100 6.06H367.9a3.03 3.03 0 000-6.06z" fill="#fff"/><path d="M530.381 486.27h-102.96a3.029 3.029 0 100 6.06h102.96a3.03 3.03 0 000-6.06z" fill="#416848"/><path opacity=".15" d="M466.821 504.92h-38.14a4.29 4.29 0 00-4.29 4.29v7.08a4.29 4.29 0 004.29 4.29h38.14a4.29 4.29 0 004.29-4.29v-7.08a4.29 4.29 0 00-4.29-4.29z" fill="#fff"/><path opacity=".5" d="M530.381 486.27h-102.96a3.029 3.029 0 100 6.06h102.96a3.03 3.03 0 000-6.06z" fill="#fff"/><path d="M690.88 486.27H587.92a3.032 3.032 0 00-3.03 3.029 3.033 3.033 0 003.03 3.031h102.96c1.67 0 3.03-1.357 3.03-3.031a3.032 3.032 0 00-3.03-3.029zM627.32 504.92h-38.14a4.29 4.29 0 00-4.29 4.29v7.08a4.29 4.29 0 004.29 4.29h38.14a4.29 4.29 0 004.29-4.29v-7.08a4.29 4.29 0 00-4.29-4.29zM138.63 504.92h-38.14a4.29 4.29 0 00-4.29 4.29v7.08a4.29 4.29 0 004.29 4.29h38.14a4.29 4.29 0 004.29-4.29v-7.08a4.29 4.29 0 00-4.29-4.29zM304.34 504.92H266.2a4.29 4.29 0 00-4.29 4.29v7.08a4.29 4.29 0 004.29 4.29h38.14a4.29 4.29 0 004.29-4.29v-7.08a4.29 4.29 0 00-4.29-4.29zM466.821 504.92h-38.14a4.29 4.29 0 00-4.29 4.29v7.08a4.29 4.29 0 004.29 4.29h38.14a4.29 4.29 0 004.29-4.29v-7.08a4.29 4.29 0 00-4.29-4.29z" fill="#416848"/><path d="M627.32 504.92h-38.14a4.29 4.29 0 00-4.29 4.29v7.08a4.29 4.29 0 004.29 4.29h38.14a4.29 4.29 0 004.29-4.29v-7.08a4.29 4.29 0 00-4.29-4.29z" fill="#416848"/><path opacity=".15" d="M138.63 504.92h-38.14a4.29 4.29 0 00-4.29 4.29v7.08a4.29 4.29 0 004.29 4.29h38.14a4.29 4.29 0 004.29-4.29v-7.08a4.29 4.29 0 00-4.29-4.29zM304.34 504.92H266.2a4.29 4.29 0 00-4.29 4.29v7.08a4.29 4.29 0 004.29 4.29h38.14a4.29 4.29 0 004.29-4.29v-7.08a4.29 4.29 0 00-4.29-4.29zM466.821 504.92h-38.14a4.29 4.29 0 00-4.29 4.29v7.08a4.29 4.29 0 004.29 4.29h38.14a4.29 4.29 0 004.29-4.29v-7.08a4.29 4.29 0 00-4.29-4.29z" fill="#fff"/><path opacity=".15" d="M138.63 504.92h-38.14a4.29 4.29 0 00-4.29 4.29v7.08a4.29 4.29 0 004.29 4.29h38.14a4.29 4.29 0 004.29-4.29v-7.08a4.29 4.29 0 00-4.29-4.29zM304.34 504.92H266.2a4.29 4.29 0 00-4.29 4.29v7.08a4.29 4.29 0 004.29 4.29h38.14a4.29 4.29 0 004.29-4.29v-7.08a4.29 4.29 0 00-4.29-4.29zM466.821 504.92h-38.14a4.29 4.29 0 00-4.29 4.29v7.08a4.29 4.29 0 004.29 4.29h38.14a4.29 4.29 0 004.29-4.29v-7.08a4.29 4.29 0 00-4.29-4.29zM627.32 504.92h-38.14a4.29 4.29 0 00-4.29 4.29v7.08a4.29 4.29 0 004.29 4.29h38.14a4.29 4.29 0 004.29-4.29v-7.08a4.29 4.29 0 00-4.29-4.29z" fill="#fff"/><path opacity=".5" d="M690.88 486.27H587.92a3.032 3.032 0 00-3.03 3.029 3.033 3.033 0 003.03 3.031h102.96c1.67 0 3.03-1.357 3.03-3.031a3.032 3.032 0 00-3.03-3.029z" fill="#fff"/></g><defs><clipPath id="clip0"><path fill="#fff" d="M0 0h742v555H0z"/></clipPath></defs></svg>