<svg width="742" height="555" viewBox="0 0 742 555" fill="none" xmlns="http://www.w3.org/2000/svg">
<path d="M723.93 0.75H25.77C16.282 0.75 8.58997 8.44199 8.58997 17.93V537.51C8.58997 546.998 16.282 554.69 25.77 554.69H723.93C733.42 554.69 741.11 546.998 741.11 537.51V17.93C741.11 8.44199 733.42 0.75 723.93 0.75Z" fill="#416848"/>
<path opacity="0.6" d="M723.93 0.75H25.77C16.282 0.75 8.58997 8.44199 8.58997 17.93V537.51C8.58997 546.998 16.282 554.69 25.77 554.69H723.93C733.42 554.69 741.11 546.998 741.11 537.51V17.93C741.11 8.44199 733.42 0.75 723.93 0.75Z" fill="white"/>
<path d="M715.66 0.75H17.5001C8.01206 0.75 0.320068 8.44199 0.320068 17.93V537.51C0.320068 546.998 8.01206 554.69 17.5001 554.69H715.66C725.15 554.69 732.84 546.998 732.84 537.51V17.93C732.84 8.44199 725.15 0.75 715.66 0.75Z" fill="white"/>
<path d="M17.5001 0.75H57.36V554.7H17.5001C12.9441 554.7 8.57405 552.89 5.35205 549.668C2.13005 546.446 0.320068 542.076 0.320068 537.52V17.93C0.320068 13.374 2.13005 9.00401 5.35205 5.78201C8.57405 2.56001 12.9441 0.75 17.5001 0.75Z" fill="#416848"/>
<path d="M40.66 27.309H17.02C15.164 27.309 13.66 28.811 13.66 30.664C13.66 32.517 15.164 34.019 17.02 34.019H40.66C42.516 34.019 44.02 32.517 44.02 30.664C44.02 28.811 42.516 27.309 40.66 27.309Z" fill="white"/>
<path d="M35.05 75.1H22.64C21.022 75.1 19.71 76.411 19.71 78.03V90.44C19.71 92.058 21.022 93.37 22.64 93.37H35.05C36.668 93.37 37.98 92.058 37.98 90.44V78.03C37.98 76.411 36.668 75.1 35.05 75.1Z" fill="white"/>
<path d="M35.05 134.42H22.64C21.022 134.42 19.71 135.732 19.71 137.35V149.76C19.71 151.378 21.022 152.69 22.64 152.69H35.05C36.668 152.69 37.98 151.378 37.98 149.76V137.35C37.98 135.732 36.668 134.42 35.05 134.42Z" fill="#416848"/>
<path d="M35.05 193.75H22.64C21.022 193.75 19.71 195.062 19.71 196.68V209.09C19.71 210.708 21.022 212.02 22.64 212.02H35.05C36.668 212.02 37.98 210.708 37.98 209.09V196.68C37.98 195.062 36.668 193.75 35.05 193.75Z" fill="#416848"/>
<path d="M35.05 253.068H22.64C21.022 253.068 19.71 254.38 19.71 255.998V268.408C19.71 270.027 21.022 271.338 22.64 271.338H35.05C36.668 271.338 37.98 270.027 37.98 268.408V255.998C37.98 254.38 36.668 253.068 35.05 253.068Z" fill="#416848"/>
<path opacity="0.4" d="M35.05 134.42H22.64C21.022 134.42 19.71 135.732 19.71 137.35V149.76C19.71 151.378 21.022 152.69 22.64 152.69H35.05C36.668 152.69 37.98 151.378 37.98 149.76V137.35C37.98 135.732 36.668 134.42 35.05 134.42Z" fill="white"/>
<path opacity="0.4" d="M35.05 193.75H22.64C21.022 193.75 19.71 195.062 19.71 196.68V209.09C19.71 210.708 21.022 212.02 22.64 212.02H35.05C36.668 212.02 37.98 210.708 37.98 209.09V196.68C37.98 195.062 36.668 193.75 35.05 193.75Z" fill="white"/>
<path opacity="0.4" d="M35.05 253.068H22.64C21.022 253.068 19.71 254.38 19.71 255.998V268.408C19.71 270.027 21.022 271.338 22.64 271.338H35.05C36.668 271.338 37.98 270.027 37.98 268.408V255.998C37.98 254.38 36.668 253.068 35.05 253.068Z" fill="white"/>
<path d="M148.68 24.529H79.94C76.726 24.529 74.12 27.135 74.12 30.349C74.12 33.564 76.726 36.169 79.94 36.169H148.68C151.894 36.169 154.5 33.564 154.5 30.349C154.5 27.135 151.894 24.529 148.68 24.529Z" fill="#868A91"/>
<path d="M709.46 19.09H648.77C646.87 19.09 645.33 20.63 645.33 22.53V38.17C645.33 40.07 646.87 41.61 648.77 41.61H709.46C711.36 41.61 712.9 40.07 712.9 38.17V22.53C712.9 20.63 711.36 19.09 709.46 19.09Z" fill="#416848"/>
<path d="M623.39 19.09H562.701C560.801 19.09 559.261 20.63 559.261 22.53V38.17C559.261 40.07 560.801 41.61 562.701 41.61H623.39C625.29 41.61 626.83 40.07 626.83 38.17V22.53C626.83 20.63 625.29 19.09 623.39 19.09Z" stroke="#4D61FC" stroke-miterlimit="10"/>
<path d="M44.58 512.745C44.58 504.055 37.536 497.01 28.845 497.01C20.155 497.01 13.11 504.055 13.11 512.745C13.11 521.435 20.155 528.48 28.845 528.48C37.536 528.48 44.58 521.435 44.58 512.745Z" fill="white"/>
<path d="M28.85 513.208C27.718 513.208 26.626 512.786 25.789 512.024C24.951 511.263 24.427 510.216 24.32 509.088L24.02 505.818C23.956 505.186 24.025 504.548 24.223 503.944C24.421 503.34 24.743 502.785 25.169 502.314C25.595 501.843 26.115 501.466 26.696 501.208C27.277 500.951 27.905 500.818 28.54 500.818H29.15C29.786 500.818 30.414 500.951 30.995 501.208C31.575 501.466 32.096 501.843 32.522 502.314C32.948 502.785 33.27 503.34 33.468 503.944C33.666 504.548 33.735 505.186 33.67 505.818L33.37 509.088C33.264 510.214 32.741 511.259 31.906 512.021C31.07 512.783 29.981 513.206 28.85 513.208Z" fill="#416848"/>
<path d="M42.171 521.12C41.548 522.123 40.81 523.05 39.971 523.88C38.299 525.552 36.272 526.826 34.041 527.607C31.809 528.388 29.43 528.656 27.081 528.391C24.731 528.125 22.472 527.334 20.47 526.075C18.469 524.816 16.777 523.123 15.521 521.12C15.905 519.384 16.871 517.83 18.259 516.718C19.646 515.605 21.372 514.999 23.151 515H34.541C36.319 514.999 38.045 515.605 39.432 516.718C40.82 517.83 41.786 519.384 42.171 521.12Z" fill="#416848"/>
<g opacity="0.4">
<path opacity="0.4" d="M28.85 513.208C27.718 513.208 26.626 512.786 25.789 512.024C24.951 511.263 24.427 510.216 24.32 509.088L24.02 505.818C23.956 505.186 24.025 504.548 24.223 503.944C24.421 503.34 24.743 502.785 25.169 502.314C25.595 501.843 26.115 501.466 26.696 501.208C27.277 500.951 27.905 500.818 28.54 500.818H29.15C29.786 500.818 30.414 500.951 30.995 501.208C31.575 501.466 32.096 501.843 32.522 502.314C32.948 502.785 33.27 503.34 33.468 503.944C33.666 504.548 33.735 505.186 33.67 505.818L33.37 509.088C33.264 510.214 32.741 511.259 31.906 512.021C31.07 512.783 29.981 513.206 28.85 513.208Z" fill="white"/>
<path opacity="0.4" d="M42.171 521.118C41.548 522.121 40.81 523.048 39.971 523.878C38.299 525.55 36.272 526.824 34.041 527.605C31.809 528.386 29.43 528.654 27.081 528.389C24.731 528.123 22.472 527.332 20.47 526.073C18.469 524.815 16.777 523.121 15.521 521.118C15.905 519.382 16.871 517.829 18.259 516.716C19.646 515.603 21.372 514.997 23.151 514.998H34.541C36.319 514.997 38.045 515.603 39.432 516.716C40.82 517.829 41.786 519.382 42.171 521.118Z" fill="white"/>
</g>
<path d="M269.11 64.24H83.11C78.145 64.24 74.12 68.265 74.12 73.23V171.6C74.12 176.565 78.145 180.59 83.11 180.59H269.11C274.075 180.59 278.1 176.565 278.1 171.6V73.23C278.1 68.265 274.075 64.24 269.11 64.24Z" fill="#416848"/>
<path opacity="0.5" d="M269.11 64.24H83.11C78.145 64.24 74.12 68.265 74.12 73.23V171.6C74.12 176.565 78.145 180.59 83.11 180.59H269.11C274.075 180.59 278.1 176.565 278.1 171.6V73.23C278.1 68.265 274.075 64.24 269.11 64.24Z" fill="white"/>
<path d="M215.821 130.219H101.131C98.651 130.219 96.641 132.229 96.641 134.709V148.719C96.641 151.199 98.651 153.209 101.131 153.209H215.821C218.3 153.209 220.311 151.199 220.311 148.719V134.709C220.311 132.229 218.3 130.219 215.821 130.219Z" fill="white"/>
<path d="M240.51 99.988H146.67C144.5 99.988 142.74 101.748 142.74 103.918C142.74 106.089 144.5 107.848 146.67 107.848H240.51C242.681 107.848 244.44 106.089 244.44 103.918C244.44 101.748 242.681 99.988 240.51 99.988Z" fill="#416848"/>
<path opacity="0.3" d="M240.51 99.988H146.67C144.5 99.988 142.74 101.748 142.74 103.918C142.74 106.089 144.5 107.848 146.67 107.848H240.51C242.681 107.848 244.44 106.089 244.44 103.918C244.44 101.748 242.681 99.988 240.51 99.988Z" fill="white"/>
<path d="M112.691 119.969C121.555 119.969 128.741 112.783 128.741 103.919C128.741 95.055 121.555 87.869 112.691 87.869C103.826 87.869 96.641 95.055 96.641 103.919C96.641 112.783 103.826 119.969 112.691 119.969Z" fill="#416848"/>
<path opacity="0.3" d="M112.691 119.969C121.555 119.969 128.741 112.783 128.741 103.919C128.741 95.055 121.555 87.869 112.691 87.869C103.826 87.869 96.641 95.055 96.641 103.919C96.641 112.783 103.826 119.969 112.691 119.969Z" fill="white"/>
<path d="M486.441 64.449H300.781C295.827 64.449 291.811 68.465 291.811 73.419V171.609C291.811 176.563 295.827 180.579 300.781 180.579H486.441C491.395 180.579 495.411 176.563 495.411 171.609V73.419C495.411 68.465 491.395 64.449 486.441 64.449Z" fill="#416848"/>
<path d="M433.25 130.309H318.77C316.296 130.309 314.29 132.314 314.29 134.789V148.779C314.29 151.253 316.296 153.259 318.77 153.259H433.25C435.724 153.259 437.73 151.253 437.73 148.779V134.789C437.73 132.314 435.724 130.309 433.25 130.309Z" fill="white"/>
<path d="M457.891 100.139H364.221C362.056 100.139 360.301 101.894 360.301 104.059C360.301 106.224 362.056 107.979 364.221 107.979H457.891C460.056 107.979 461.811 106.224 461.811 104.059C461.811 101.894 460.056 100.139 457.891 100.139Z" fill="#416848"/>
<path opacity="0.3" d="M457.891 100.139H364.221C362.056 100.139 360.301 101.894 360.301 104.059C360.301 106.224 362.056 107.979 364.221 107.979H457.891C460.056 107.979 461.811 106.224 461.811 104.059C461.811 101.894 460.056 100.139 457.891 100.139Z" fill="white"/>
<path d="M330.31 120.089C339.158 120.089 346.33 112.916 346.33 104.069C346.33 95.221 339.158 88.049 330.31 88.049C321.462 88.049 314.29 95.221 314.29 104.069C314.29 112.916 321.462 120.089 330.31 120.089Z" fill="#416848"/>
<path opacity="0.3" d="M330.31 120.089C339.158 120.089 346.33 112.916 346.33 104.069C346.33 95.221 339.158 88.049 330.31 88.049C321.462 88.049 314.29 95.221 314.29 104.069C314.29 112.916 321.462 120.089 330.31 120.089Z" fill="white"/>
<path d="M703.94 64.449H518.281C513.327 64.449 509.311 68.465 509.311 73.419V171.609C509.311 176.563 513.327 180.579 518.281 180.579H703.94C708.89 180.579 712.91 176.563 712.91 171.609V73.419C712.91 68.465 708.89 64.449 703.94 64.449Z" fill="#B2B6BB"/>
<path d="M650.75 130.309H536.27C533.796 130.309 531.79 132.314 531.79 134.789V148.779C531.79 151.253 533.796 153.259 536.27 153.259H650.75C653.22 153.259 655.23 151.253 655.23 148.779V134.789C655.23 132.314 653.22 130.309 650.75 130.309Z" fill="white"/>
<path d="M675.39 100.139H581.72C579.56 100.139 577.8 101.894 577.8 104.059C577.8 106.224 579.56 107.979 581.72 107.979H675.39C677.56 107.979 679.31 106.224 679.31 104.059C679.31 101.894 677.56 100.139 675.39 100.139Z" fill="#416848"/>
<path d="M675.39 100.139H581.72C579.56 100.139 577.8 101.894 577.8 104.059C577.8 106.224 579.56 107.979 581.72 107.979H675.39C677.56 107.979 679.31 106.224 679.31 104.059C679.31 101.894 677.56 100.139 675.39 100.139Z" fill="#868A91"/>
<path d="M547.81 120.089C556.658 120.089 563.83 112.916 563.83 104.069C563.83 95.221 556.658 88.049 547.81 88.049C538.962 88.049 531.79 95.221 531.79 104.069C531.79 112.916 538.962 120.089 547.81 120.089Z" fill="#868A91"/>
<path d="M703.94 194.33H518.281C513.327 194.33 509.311 198.346 509.311 203.3V443.9C509.311 448.854 513.327 452.87 518.281 452.87H703.94C708.89 452.87 712.91 448.854 712.91 443.9V203.3C712.91 198.346 708.89 194.33 703.94 194.33Z" fill="#416848"/>
<path opacity="0.85" d="M703.94 194.33H518.281C513.327 194.33 509.311 198.346 509.311 203.3V443.9C509.311 448.854 513.327 452.87 518.281 452.87H703.94C708.89 452.87 712.91 448.854 712.91 443.9V203.3C712.91 198.346 708.89 194.33 703.94 194.33Z" fill="white"/>
<path d="M657.47 258.18L656.55 257.18L639.31 273.27L640.23 274.27C647.17 281.676 651.02 291.452 651 301.602C650.98 311.752 647.09 321.511 640.12 328.889C633.14 336.266 623.62 340.705 613.49 341.3C603.36 341.895 593.38 338.601 585.59 332.09L584.59 331.22L569.511 349.33L570.511 350.2C582.9 360.556 598.78 365.795 614.9 364.85C631.02 363.904 646.18 356.844 657.27 345.11C668.37 333.376 674.57 317.852 674.62 301.702C674.66 285.553 668.54 269.994 657.51 258.2L657.47 258.18Z" fill="#416848"/>
<path opacity="0.5" d="M657.47 258.18L656.55 257.18L639.31 273.27L640.23 274.27C647.17 281.676 651.02 291.452 651 301.602C650.98 311.752 647.09 321.511 640.12 328.889C633.14 336.266 623.62 340.705 613.49 341.3C603.36 341.895 593.38 338.601 585.59 332.09L584.59 331.22L569.511 349.33L570.511 350.2C582.9 360.556 598.78 365.795 614.9 364.85C631.02 363.904 646.18 356.844 657.27 345.11C668.37 333.376 674.57 317.852 674.62 301.702C674.66 285.553 668.54 269.994 657.51 258.2L657.47 258.18Z" fill="white"/>
<path d="M657.47 258.179C649.84 249.998 640.18 243.987 629.47 240.759L628.17 240.389L626.89 240.029C616.41 237.332 605.41 237.363 594.94 240.12C584.47 242.877 574.884 248.268 567.09 255.779L566.09 256.709L582.44 273.709L583.44 272.769C590.85 265.602 600.77 261.606 611.08 261.629C614.71 261.628 618.33 262.119 621.83 263.089C628.86 265.069 635.21 268.943 640.19 274.289L641.12 275.289L658.36 259.199L657.47 258.179Z" fill="#416848"/>
<path d="M585.59 332.088C581.29 328.499 577.79 324.045 575.329 319.014C572.864 313.984 571.487 308.492 571.286 302.894C571.085 297.296 572.065 291.718 574.163 286.524C576.26 281.33 579.43 276.637 583.46 272.748L584.46 271.818L568.111 254.818L567.111 255.758C560.685 261.94 555.635 269.407 552.29 277.672C548.946 285.938 547.383 294.815 547.703 303.726C548.023 312.637 550.219 321.38 554.147 329.384C558.075 337.388 563.648 344.474 570.501 350.178L571.501 351.038L586.63 332.998L585.59 332.088Z" fill="#61656D"/>
<path d="M625.86 292.139H596.36C593.56 292.139 591.29 294.409 591.29 297.209V305.719C591.29 308.519 593.56 310.789 596.36 310.789H625.86C628.66 310.789 630.93 308.519 630.93 305.719V297.209C630.93 294.409 628.66 292.139 625.86 292.139Z" fill="#416848"/>
<path opacity="0.4" d="M625.86 292.139H596.36C593.56 292.139 591.29 294.409 591.29 297.209V305.719C591.29 308.519 593.56 310.789 596.36 310.789H625.86C628.66 310.789 630.93 308.519 630.93 305.719V297.209C630.93 294.409 628.66 292.139 625.86 292.139Z" fill="white"/>
<path d="M224.14 466.309H85.71C83.341 466.309 81.42 468.229 81.42 470.599V529.809C81.42 532.178 83.341 534.099 85.71 534.099H224.14C226.509 534.099 228.43 532.178 228.43 529.809V470.599C228.43 468.229 226.509 466.309 224.14 466.309Z" fill="#416848"/>
<path d="M385.63 466.309H247.2C244.831 466.309 242.91 468.229 242.91 470.599V529.809C242.91 532.178 244.831 534.099 247.2 534.099H385.63C387.999 534.099 389.92 532.178 389.92 529.809V470.599C389.92 468.229 387.999 466.309 385.63 466.309Z" fill="#416848"/>
<path d="M547.13 466.309H408.7C406.331 466.309 404.41 468.229 404.41 470.599V529.809C404.41 532.178 406.331 534.099 408.7 534.099H547.13C549.499 534.099 551.42 532.178 551.42 529.809V470.599C551.42 468.229 549.499 466.309 547.13 466.309Z" fill="#416848"/>
<path d="M708.62 466.309H570.19C567.821 466.309 565.9 468.229 565.9 470.599V529.809C565.9 532.178 567.821 534.099 570.19 534.099H708.62C710.99 534.099 712.91 532.178 712.91 529.809V470.599C712.91 468.229 710.99 466.309 708.62 466.309Z" fill="#416848"/>
<g opacity="0.85">
<path opacity="0.85" d="M224.14 466.309H85.71C83.341 466.309 81.42 468.229 81.42 470.599V529.809C81.42 532.178 83.341 534.099 85.71 534.099H224.14C226.509 534.099 228.43 532.178 228.43 529.809V470.599C228.43 468.229 226.509 466.309 224.14 466.309Z" fill="white"/>
</g>
<g opacity="0.85">
<path opacity="0.85" d="M385.63 466.309H247.2C244.831 466.309 242.91 468.229 242.91 470.599V529.809C242.91 532.178 244.831 534.099 247.2 534.099H385.63C387.999 534.099 389.92 532.178 389.92 529.809V470.599C389.92 468.229 387.999 466.309 385.63 466.309Z" fill="white"/>
</g>
<g opacity="0.85">
<path opacity="0.85" d="M547.13 466.309H408.7C406.331 466.309 404.41 468.229 404.41 470.599V529.809C404.41 532.178 406.331 534.099 408.7 534.099H547.13C549.499 534.099 551.42 532.178 551.42 529.809V470.599C551.42 468.229 549.499 466.309 547.13 466.309Z" fill="white"/>
</g>
<g opacity="0.85">
<path opacity="0.85" d="M708.62 466.309H570.19C567.821 466.309 565.9 468.229 565.9 470.599V529.809C565.9 532.178 567.821 534.099 570.19 534.099H708.62C710.99 534.099 712.91 532.178 712.91 529.809V470.599C712.91 468.229 710.99 466.309 708.62 466.309Z" fill="white"/>
</g>
<path d="M486.33 194.33H85.83C80.876 194.33 76.86 198.346 76.86 203.3V443.84C76.86 448.794 80.876 452.81 85.83 452.81H486.33C491.284 452.81 495.3 448.794 495.3 443.84V203.3C495.3 198.346 491.284 194.33 486.33 194.33Z" fill="#416848"/>
<path opacity="0.85" d="M486.33 194.33H85.83C80.876 194.33 76.86 198.346 76.86 203.3V443.84C76.86 448.794 80.876 452.81 85.83 452.81H486.33C491.284 452.81 495.3 448.794 495.3 443.84V203.3C495.3 198.346 491.284 194.33 486.33 194.33Z" fill="white"/>
<path opacity="0.2" d="M495.3 381.109H77.08V382.019H495.3V381.109Z" fill="#416848"/>
<path opacity="0.2" d="M495.3 311.379H77.08V312.289H495.3V311.379Z" fill="#416848"/>
<path opacity="0.2" d="M495.3 241.639H77.08V242.549H495.3V241.639Z" fill="#416848"/>
<path opacity="0.4" d="M77.08 346.619C77.08 346.619 136.25 368.679 178.37 346.619C220.49 324.559 265.96 274.219 327.81 326.559C379.25 370.099 403.7 274.219 437.81 274.219C471.92 274.219 495.31 338.919 495.31 338.919V443.839C495.31 446.226 494.362 448.515 492.674 450.203C490.986 451.891 488.697 452.839 486.31 452.839H85.84C83.453 452.839 81.164 451.891 79.476 450.203C77.788 448.515 76.84 446.226 76.84 443.839L77.08 346.619Z" fill="#416848"/>
<path d="M133.211 357.329C126.048 357.303 118.895 356.792 111.801 355.799C99.8881 354.18 88.165 351.39 76.801 347.469L77.441 345.759C88.693 349.633 100.299 352.393 112.091 353.999C130.251 356.489 156.411 357.099 177.951 345.819C185.811 341.699 193.691 336.659 202.021 331.319C237.471 308.629 277.641 282.909 328.401 325.869C338.121 334.089 347.241 337.689 356.301 336.869C373.111 335.359 386.751 318.799 399.951 302.789C412.451 287.629 424.251 273.299 437.801 273.299C472.141 273.299 495.191 335.949 496.161 338.609L494.441 339.229C490.15 328.026 484.827 317.246 478.541 307.029C462.051 280.659 447.281 275.129 437.801 275.129C425.111 275.129 413.581 289.129 401.361 303.959C387.931 320.259 374.041 337.109 356.461 338.689C346.911 339.549 337.331 335.809 327.221 327.259C305.001 308.449 283.001 301.399 259.841 305.719C239.431 309.529 220.911 321.389 203.011 332.849C194.641 338.209 186.731 343.269 178.801 347.419C169.491 352.299 154.681 357.329 133.211 357.329Z" fill="#416848"/>
<path d="M285.7 307.379C287.335 307.379 288.66 306.054 288.66 304.419C288.66 302.784 287.335 301.459 285.7 301.459C284.065 301.459 282.74 302.784 282.74 304.419C282.74 306.054 284.065 307.379 285.7 307.379Z" fill="#416848"/>
<path d="M355.82 340.92C357.455 340.92 358.78 339.595 358.78 337.96C358.78 336.325 357.455 335 355.82 335C354.186 335 352.86 336.325 352.86 337.96C352.86 339.595 354.186 340.92 355.82 340.92Z" fill="#416848"/>
<path d="M439.24 277.18C440.875 277.18 442.2 275.854 442.2 274.22C442.2 272.585 440.875 271.26 439.24 271.26C437.605 271.26 436.28 272.585 436.28 274.22C436.28 275.854 437.605 277.18 439.24 277.18Z" fill="#416848"/>
<path d="M216.05 327C217.685 327 219.01 325.675 219.01 324.04C219.01 322.405 217.685 321.08 216.05 321.08C214.415 321.08 213.09 322.405 213.09 324.04C213.09 325.675 214.415 327 216.05 327Z" fill="#416848"/>
<path d="M146.601 358.619C148.235 358.619 149.561 357.294 149.561 355.659C149.561 354.024 148.235 352.699 146.601 352.699C144.966 352.699 143.641 354.024 143.641 355.659C143.641 357.294 144.966 358.619 146.601 358.619Z" fill="#416848"/>
<path d="M77.08 350.01C78.715 350.01 80.04 348.685 80.04 347.05C80.04 345.415 78.715 344.09 77.08 344.09C75.445 344.09 74.12 345.415 74.12 347.05C74.12 348.685 75.445 350.01 77.08 350.01Z" fill="#416848"/>
<path d="M495.3 340.92C496.935 340.92 498.26 339.595 498.26 337.96C498.26 336.325 496.935 335 495.3 335C493.665 335 492.34 336.325 492.34 337.96C492.34 339.595 493.665 340.92 495.3 340.92Z" fill="#416848"/>
<path d="M220.271 209.398H95.341C92.126 209.398 89.521 212.004 89.521 215.218C89.521 218.433 92.126 221.038 95.341 221.038H220.271C223.485 221.038 226.091 218.433 226.091 215.218C226.091 212.004 223.485 209.398 220.271 209.398Z" fill="#868A91"/>
<path d="M607.13 209.398H528.831C525.616 209.398 523.011 212.004 523.011 215.218C523.011 218.433 525.616 221.038 528.831 221.038H607.13C610.35 221.038 612.95 218.433 612.95 215.218C612.95 212.004 610.35 209.398 607.13 209.398Z" fill="#868A91"/>
<path d="M531.201 381.109H524.691C523.006 381.109 521.641 382.475 521.641 384.159V390.669C521.641 392.354 523.006 393.719 524.691 393.719H531.201C532.885 393.719 534.251 392.354 534.251 390.669V384.159C534.251 382.475 532.885 381.109 531.201 381.109Z" fill="#416848"/>
<path opacity="0.5" d="M531.201 381.109H524.691C523.006 381.109 521.641 382.475 521.641 384.159V390.669C521.641 392.354 523.006 393.719 524.691 393.719H531.201C532.885 393.719 534.251 392.354 534.251 390.669V384.159C534.251 382.475 532.885 381.109 531.201 381.109Z" fill="white"/>
<path d="M531.201 404.539H524.691C523.006 404.539 521.641 405.905 521.641 407.589V414.099C521.641 415.784 523.006 417.149 524.691 417.149H531.201C532.885 417.149 534.251 415.784 534.251 414.099V407.589C534.251 405.905 532.885 404.539 531.201 404.539Z" fill="#416848"/>
<path d="M531.201 427.969H524.691C523.006 427.969 521.641 429.334 521.641 431.019V437.529C521.641 439.213 523.006 440.579 524.691 440.579H531.201C532.885 440.579 534.251 439.213 534.251 437.529V431.019C534.251 429.334 532.885 427.969 531.201 427.969Z" fill="#61656D"/>
<path d="M633.9 384.359H546.3C544.61 384.359 543.24 385.729 543.24 387.419V387.429C543.24 389.119 544.61 390.489 546.3 390.489H633.9C635.59 390.489 636.96 389.119 636.96 387.429V387.419C636.96 385.729 635.59 384.359 633.9 384.359Z" fill="#416848"/>
<path d="M633.9 407.789H546.3C544.61 407.789 543.24 409.159 543.24 410.849V410.859C543.24 412.549 544.61 413.919 546.3 413.919H633.9C635.59 413.919 636.96 412.549 636.96 410.859V410.849C636.96 409.159 635.59 407.789 633.9 407.789Z" fill="#416848"/>
<path d="M633.9 431.219H546.3C544.61 431.219 543.24 432.589 543.24 434.279V434.289C543.24 435.979 544.61 437.349 546.3 437.349H633.9C635.59 437.349 636.96 435.979 636.96 434.289V434.279C636.96 432.589 635.59 431.219 633.9 431.219Z" fill="#416848"/>
<path opacity="0.5" d="M633.9 384.359H546.3C544.61 384.359 543.24 385.729 543.24 387.419V387.429C543.24 389.119 544.61 390.489 546.3 390.489H633.9C635.59 390.489 636.96 389.119 636.96 387.429V387.419C636.96 385.729 635.59 384.359 633.9 384.359Z" fill="white"/>
<path opacity="0.5" d="M633.9 407.789H546.3C544.61 407.789 543.24 409.159 543.24 410.849V410.859C543.24 412.549 544.61 413.919 546.3 413.919H633.9C635.59 413.919 636.96 412.549 636.96 410.859V410.849C636.96 409.159 635.59 407.789 633.9 407.789Z" fill="white"/>
<path opacity="0.5" d="M633.9 431.219H546.3C544.61 431.219 543.24 432.589 543.24 434.279V434.289C543.24 435.979 544.61 437.349 546.3 437.349H633.9C635.59 437.349 636.96 435.979 636.96 434.289V434.279C636.96 432.589 635.59 431.219 633.9 431.219Z" fill="white"/>
<path d="M697.52 384.359H673.39C671.7 384.359 670.33 385.729 670.33 387.419V387.429C670.33 389.119 671.7 390.489 673.39 390.489H697.52C699.21 390.489 700.58 389.119 700.58 387.429V387.419C700.58 385.729 699.21 384.359 697.52 384.359Z" fill="#416848"/>
<path d="M697.52 407.789H673.39C671.7 407.789 670.33 409.159 670.33 410.849V410.859C670.33 412.549 671.7 413.919 673.39 413.919H697.52C699.21 413.919 700.58 412.549 700.58 410.859V410.849C700.58 409.159 699.21 407.789 697.52 407.789Z" fill="#416848"/>
<path d="M697.52 431.219H673.39C671.7 431.219 670.33 432.589 670.33 434.279V434.289C670.33 435.979 671.7 437.349 673.39 437.349H697.52C699.21 437.349 700.58 435.979 700.58 434.289V434.279C700.58 432.589 699.21 431.219 697.52 431.219Z" fill="#416848"/>
<path d="M202.19 486.27H99.2299C97.5569 486.27 96.2 487.626 96.2 489.299C96.2 490.973 97.5569 492.33 99.2299 492.33H202.19C203.864 492.33 205.22 490.973 205.22 489.299C205.22 487.626 203.864 486.27 202.19 486.27Z" fill="#416848"/>
<path opacity="0.15" d="M138.63 504.92H100.49C98.1209 504.92 96.2 506.841 96.2 509.21V516.29C96.2 518.659 98.1209 520.58 100.49 520.58H138.63C140.999 520.58 142.92 518.659 142.92 516.29V509.21C142.92 506.841 140.999 504.92 138.63 504.92Z" fill="white"/>
<path opacity="0.5" d="M202.19 486.27H99.2299C97.5569 486.27 96.2 487.626 96.2 489.299C96.2 490.973 97.5569 492.33 99.2299 492.33H202.19C203.864 492.33 205.22 490.973 205.22 489.299C205.22 487.626 203.864 486.27 202.19 486.27Z" fill="white"/>
<path d="M367.9 486.27H264.94C263.267 486.27 261.91 487.626 261.91 489.299C261.91 490.973 263.267 492.33 264.94 492.33H367.9C369.574 492.33 370.93 490.973 370.93 489.299C370.93 487.626 369.574 486.27 367.9 486.27Z" fill="#416848"/>
<path opacity="0.15" d="M304.34 504.92H266.2C263.831 504.92 261.91 506.841 261.91 509.21V516.29C261.91 518.659 263.831 520.58 266.2 520.58H304.34C306.71 520.58 308.63 518.659 308.63 516.29V509.21C308.63 506.841 306.71 504.92 304.34 504.92Z" fill="white"/>
<path opacity="0.5" d="M367.9 486.27H264.94C263.267 486.27 261.91 487.626 261.91 489.299C261.91 490.973 263.267 492.33 264.94 492.33H367.9C369.574 492.33 370.93 490.973 370.93 489.299C370.93 487.626 369.574 486.27 367.9 486.27Z" fill="white"/>
<path d="M530.381 486.27H427.421C425.747 486.27 424.391 487.626 424.391 489.299C424.391 490.973 425.747 492.33 427.421 492.33H530.381C532.054 492.33 533.411 490.973 533.411 489.299C533.411 487.626 532.054 486.27 530.381 486.27Z" fill="#416848"/>
<path opacity="0.15" d="M466.821 504.92H428.681C426.311 504.92 424.391 506.841 424.391 509.21V516.29C424.391 518.659 426.311 520.58 428.681 520.58H466.821C469.19 520.58 471.111 518.659 471.111 516.29V509.21C471.111 506.841 469.19 504.92 466.821 504.92Z" fill="white"/>
<path opacity="0.5" d="M530.381 486.27H427.421C425.747 486.27 424.391 487.626 424.391 489.299C424.391 490.973 425.747 492.33 427.421 492.33H530.381C532.054 492.33 533.411 490.973 533.411 489.299C533.411 487.626 532.054 486.27 530.381 486.27Z" fill="white"/>
<path d="M690.88 486.27H587.92C586.25 486.27 584.89 487.626 584.89 489.299C584.89 490.973 586.25 492.33 587.92 492.33H690.88C692.55 492.33 693.91 490.973 693.91 489.299C693.91 487.626 692.55 486.27 690.88 486.27Z" fill="#416848"/>
<path d="M627.32 504.92H589.18C586.81 504.92 584.89 506.841 584.89 509.21V516.29C584.89 518.659 586.81 520.58 589.18 520.58H627.32C629.69 520.58 631.61 518.659 631.61 516.29V509.21C631.61 506.841 629.69 504.92 627.32 504.92Z" fill="#416848"/>
<path d="M138.63 504.92H100.49C98.1209 504.92 96.2 506.841 96.2 509.21V516.29C96.2 518.659 98.1209 520.58 100.49 520.58H138.63C140.999 520.58 142.92 518.659 142.92 516.29V509.21C142.92 506.841 140.999 504.92 138.63 504.92Z" fill="#416848"/>
<path d="M304.34 504.92H266.2C263.831 504.92 261.91 506.841 261.91 509.21V516.29C261.91 518.659 263.831 520.58 266.2 520.58H304.34C306.71 520.58 308.63 518.659 308.63 516.29V509.21C308.63 506.841 306.71 504.92 304.34 504.92Z" fill="#416848"/>
<path d="M466.821 504.92H428.681C426.311 504.92 424.391 506.841 424.391 509.21V516.29C424.391 518.659 426.311 520.58 428.681 520.58H466.821C469.19 520.58 471.111 518.659 471.111 516.29V509.21C471.111 506.841 469.19 504.92 466.821 504.92Z" fill="#416848"/>
<path d="M627.32 504.92H589.18C586.81 504.92 584.89 506.841 584.89 509.21V516.29C584.89 518.659 586.81 520.58 589.18 520.58H627.32C629.69 520.58 631.61 518.659 631.61 516.29V509.21C631.61 506.841 629.69 504.92 627.32 504.92Z" fill="#416848"/>
<path opacity="0.15" d="M138.63 504.92H100.49C98.1209 504.92 96.2 506.841 96.2 509.21V516.29C96.2 518.659 98.1209 520.58 100.49 520.58H138.63C140.999 520.58 142.92 518.659 142.92 516.29V509.21C142.92 506.841 140.999 504.92 138.63 504.92Z" fill="white"/>
<path opacity="0.15" d="M304.34 504.92H266.2C263.831 504.92 261.91 506.841 261.91 509.21V516.29C261.91 518.659 263.831 520.58 266.2 520.58H304.34C306.71 520.58 308.63 518.659 308.63 516.29V509.21C308.63 506.841 306.71 504.92 304.34 504.92Z" fill="white"/>
<path opacity="0.15" d="M466.821 504.92H428.681C426.311 504.92 424.391 506.841 424.391 509.21V516.29C424.391 518.659 426.311 520.58 428.681 520.58H466.821C469.19 520.58 471.111 518.659 471.111 516.29V509.21C471.111 506.841 469.19 504.92 466.821 504.92Z" fill="white"/>
<path opacity="0.15" d="M138.63 504.92H100.49C98.1209 504.92 96.2 506.841 96.2 509.21V516.29C96.2 518.659 98.1209 520.58 100.49 520.58H138.63C140.999 520.58 142.92 518.659 142.92 516.29V509.21C142.92 506.841 140.999 504.92 138.63 504.92Z" fill="white"/>
<path opacity="0.15" d="M304.34 504.92H266.2C263.831 504.92 261.91 506.841 261.91 509.21V516.29C261.91 518.659 263.831 520.58 266.2 520.58H304.34C306.71 520.58 308.63 518.659 308.63 516.29V509.21C308.63 506.841 306.71 504.92 304.34 504.92Z" fill="white"/>
<path opacity="0.15" d="M466.821 504.92H428.681C426.311 504.92 424.391 506.841 424.391 509.21V516.29C424.391 518.659 426.311 520.58 428.681 520.58H466.821C469.19 520.58 471.111 518.659 471.111 516.29V509.21C471.111 506.841 469.19 504.92 466.821 504.92Z" fill="white"/>
<path opacity="0.15" d="M627.32 504.92H589.18C586.81 504.92 584.89 506.841 584.89 509.21V516.29C584.89 518.659 586.81 520.58 589.18 520.58H627.32C629.69 520.58 631.61 518.659 631.61 516.29V509.21C631.61 506.841 629.69 504.92 627.32 504.92Z" fill="white"/>
<path opacity="0.5" d="M690.88 486.27H587.92C586.25 486.27 584.89 487.626 584.89 489.299C584.89 490.973 586.25 492.33 587.92 492.33H690.88C692.55 492.33 693.91 490.973 693.91 489.299C693.91 487.626 692.55 486.27 690.88 486.27Z" fill="white"/>
</svg>
