<svg width="782" height="555" viewBox="0 0 782 555" fill="none" xmlns="http://www.w3.org/2000/svg">
<path d="M8.4397 10.9713V449.563C8.4397 452.271 9.51542 454.868 11.4311 456.783C13.3481 458.698 15.9466 459.774 18.6559 459.774H653.996C656.705 459.774 659.303 458.698 661.219 456.783C663.135 454.868 664.212 452.271 664.212 449.563V10.9713C664.212 8.26323 663.135 5.66593 661.219 3.74982C659.303 1.83501 656.705 0.75977 653.996 0.75977H18.6688C17.3264 0.758483 15.9982 1.01989 14.7575 1.5324C13.5182 2.04362 12.3909 2.79434 11.4402 3.74081C10.4907 4.68856 9.73701 5.81272 9.22169 7.05149C8.70766 8.29026 8.44099 9.61659 8.4397 10.9584V10.9713Z" fill="#868A91"/>
<path d="M664.199 10.9455C664.199 8.23745 663.122 5.64015 661.206 3.72534C659.29 1.81053 656.692 0.734009 653.983 0.734009H18.6559C17.3135 0.734009 15.9853 0.997973 14.746 1.51177C13.5066 2.02427 12.3806 2.77759 11.4311 3.72534C10.4829 4.67309 9.73057 5.79983 9.21654 7.0386C8.7038 8.27737 8.4397 9.60499 8.4397 10.9455V31.2912H664.186L664.199 10.9455Z" fill="#3F4249"/>
<path d="M0.734375 10.9712V449.563C0.73824 452.272 1.81781 454.87 3.73481 456.784C5.65309 458.699 8.25291 459.774 10.9635 459.774H646.29C648.999 459.774 651.598 458.699 653.515 456.784C655.431 454.868 656.506 452.271 656.506 449.563V10.9455C656.504 8.23616 655.424 5.63886 653.506 3.72404C651.588 1.80923 648.988 0.734009 646.277 0.734009H10.9506C8.24131 0.734009 5.64281 1.81053 3.7271 3.72534C1.81139 5.64015 0.734375 8.23745 0.734375 10.9455V10.9712Z" fill="#D8DBDD"/>
<path d="M656.506 10.9455C656.504 8.23616 655.424 5.63886 653.506 3.72404C651.588 1.80923 648.988 0.734009 646.277 0.734009H10.9506C8.24131 0.734009 5.64281 1.81053 3.7271 3.72534C1.81139 5.64015 0.734375 8.23745 0.734375 10.9455V31.2912H656.481L656.506 10.9455Z" fill="#61656D"/>
<path d="M25.0575 22.3545C28.5591 22.3545 31.3959 19.5177 31.3959 16.019C31.3959 12.5191 28.5591 9.68353 25.0575 9.68353C21.5571 9.68353 18.719 12.5191 18.719 16.019C18.719 19.5177 21.5571 22.3545 25.0575 22.3545Z" fill="#B2B6BB"/>
<path d="M47.8862 22.3545C51.3865 22.3545 54.2246 19.5177 54.2246 16.019C54.2246 12.5191 51.3865 9.68353 47.8862 9.68353C44.3859 9.68353 41.5477 12.5191 41.5477 16.019C41.5477 19.5177 44.3859 22.3545 47.8862 22.3545Z" fill="white"/>
<path d="M70.7277 22.3545C74.2293 22.3545 77.0662 19.5177 77.0662 16.019C77.0662 12.5191 74.2293 9.68353 70.7277 9.68353C67.2274 9.68353 64.3893 12.5191 64.3893 16.019C64.3893 19.5177 67.2274 22.3545 70.7277 22.3545Z" fill="black"/>
<path d="M588.883 53.4796H140.129C137.404 53.4796 135.194 55.688 135.194 58.4115V78.152C135.194 80.8768 137.404 83.0839 140.129 83.0839H588.883C591.609 83.0839 593.817 80.8768 593.817 78.152V58.4115C593.817 55.688 591.609 53.4796 588.883 53.4796Z" fill="#B2B6BB"/>
<path d="M579.556 64.1534C578.797 63.3885 577.835 62.8592 576.783 62.6274C575.732 62.3957 574.636 62.4716 573.627 62.8464C572.617 63.2211 571.737 63.8791 571.092 64.7406C570.446 65.602 570.062 66.6309 569.988 67.7049C569.912 68.7775 570.147 69.8502 570.665 70.7941C571.183 71.7367 571.963 72.5119 572.909 73.0244C573.856 73.5356 574.931 73.7648 576.004 73.6837C577.078 73.6013 578.105 73.2111 578.963 72.5621L582.094 75.6912L583.163 74.6095L580.045 71.4804C580.862 70.4052 581.264 69.0711 581.174 67.7242C581.084 66.3772 580.509 65.1089 579.556 64.1534ZM578.474 71.004C577.903 71.5744 577.175 71.9646 576.383 72.1217C575.59 72.2801 574.768 72.1989 574.023 71.8912C573.275 71.5821 572.638 71.0593 572.188 70.3871C571.74 69.7163 571.5 68.9269 571.5 68.1195C571.5 67.3108 571.74 66.5215 572.188 65.8506C572.638 65.1797 573.275 64.6556 574.023 64.3465C574.768 64.0388 575.59 63.9576 576.383 64.116C577.175 64.2731 577.903 64.6633 578.474 65.2351C579.235 66.0012 579.663 67.0378 579.663 68.1195C579.663 69.1999 579.235 70.2365 578.474 71.004Z" fill="#3F4249"/>
<path d="M105.615 62.594H88.9961V64.2294H105.615V62.594Z" fill="#868A91"/>
<path d="M105.615 68.4144H88.9961V70.0498H105.615V68.4144Z" fill="#868A91"/>
<path d="M105.615 74.2335H88.9961V75.8689H105.615V74.2335Z" fill="#868A91"/>
<path d="M49.4191 53.4796H30.3136C27.4111 53.4796 25.0574 55.8322 25.0574 58.7334V77.8301C25.0574 80.7325 27.4111 83.0839 30.3136 83.0839H49.4191C52.3217 83.0839 54.6754 80.7325 54.6754 77.8301V58.7334C54.6754 55.8322 52.3217 53.4796 49.4191 53.4796Z" fill="#61656D"/>
<path d="M35.3393 62.8927V73.9412C35.3393 74.1331 35.4154 74.3159 35.5506 74.4511C35.6859 74.5863 35.8688 74.6623 36.0608 74.6623C36.1909 74.6597 36.3198 74.625 36.4344 74.5593L45.5685 69.035C45.7385 68.95 45.8686 68.7994 45.9279 68.6191C45.9885 68.4375 45.9756 68.2405 45.8906 68.0693C45.821 67.9302 45.7076 67.8169 45.5685 67.7473L36.4344 62.236C36.3533 62.187 36.2631 62.1548 36.169 62.1394C36.075 62.1252 35.9796 62.1304 35.8869 62.1523C35.7954 62.1755 35.7078 62.2166 35.6318 62.272C35.5558 62.3287 35.4913 62.3995 35.4424 62.4806C35.3625 62.603 35.3265 62.7485 35.3393 62.8927Z" fill="white"/>
<path d="M341.131 98.8569H32.5182C29.4224 98.8569 26.9141 101.364 26.9141 104.458V300.782C26.9141 303.875 29.4224 306.383 32.5182 306.383H341.131C344.226 306.383 346.735 303.875 346.735 300.782V104.458C346.735 101.364 344.226 98.8569 341.131 98.8569Z" fill="#61656D"/>
<g opacity="0.7">
<path opacity="0.7" d="M332.575 324.013H85.6206C84.0192 324.013 82.7219 325.31 82.7219 326.91V326.923C82.7219 328.524 84.0192 329.821 85.6206 329.821H332.575C334.177 329.821 335.474 328.524 335.474 326.923V326.91C335.474 325.31 334.177 324.013 332.575 324.013Z" fill="#3F4249"/>
<path opacity="0.7" d="M332.575 345.054H85.6206C84.0192 345.054 82.7219 346.351 82.7219 347.952V347.964C82.7219 349.565 84.0192 350.862 85.6206 350.862H332.575C334.177 350.862 335.474 349.565 335.474 347.964V347.952C335.474 346.351 334.177 345.054 332.575 345.054Z" fill="#B2B6BB"/>
<path opacity="0.7" d="M224.422 366.108H85.6206C84.0192 366.108 82.7219 367.405 82.7219 369.005V369.018C82.7219 370.618 84.0192 371.916 85.6206 371.916H224.422C226.024 371.916 227.321 370.618 227.321 369.018V369.005C227.321 367.405 226.024 366.108 224.422 366.108Z" fill="#B2B6BB"/>
</g>
<g opacity="0.7">
<path opacity="0.7" d="M118.718 409.077H298.385C298.662 409.075 298.938 409.129 299.195 409.235C299.453 409.34 299.686 409.496 299.882 409.692C300.079 409.889 300.235 410.122 300.341 410.379C300.446 410.636 300.499 410.911 300.498 411.189C300.499 411.466 300.446 411.742 300.341 411.999C300.235 412.256 300.079 412.49 299.882 412.686C299.686 412.883 299.453 413.039 299.195 413.144C298.938 413.25 298.662 413.302 298.385 413.301H118.718C118.44 413.302 118.164 413.25 117.908 413.144C117.65 413.039 117.417 412.883 117.22 412.686C117.024 412.49 116.868 412.256 116.763 411.999C116.657 411.742 116.603 411.466 116.606 411.189C116.603 410.911 116.657 410.636 116.763 410.379C116.868 410.122 117.024 409.889 117.22 409.692C117.417 409.496 117.65 409.34 117.908 409.235C118.164 409.129 118.44 409.075 118.718 409.077Z" fill="white"/>
<path opacity="0.7" d="M118.718 428.665H233.506C233.784 428.662 234.059 428.716 234.317 428.822C234.574 428.927 234.807 429.082 235.003 429.279C235.2 429.476 235.356 429.709 235.462 429.965C235.568 430.223 235.62 430.498 235.619 430.777C235.62 431.053 235.568 431.329 235.462 431.587C235.356 431.843 235.2 432.077 235.003 432.273C234.807 432.47 234.574 432.626 234.317 432.73C234.059 432.836 233.784 432.89 233.506 432.888H118.718C118.44 432.89 118.164 432.836 117.908 432.73C117.65 432.626 117.417 432.47 117.22 432.273C117.024 432.077 116.868 431.843 116.763 431.587C116.657 431.329 116.603 431.053 116.606 430.777C116.603 430.498 116.657 430.223 116.763 429.965C116.868 429.709 117.024 429.476 117.22 429.279C117.417 429.082 117.65 428.927 117.908 428.822C118.164 428.716 118.44 428.662 118.718 428.665Z" fill="white"/>
</g>
<path d="M335.475 290.546H34.4762V292.142H335.475V290.546Z" fill="#3F4249"/>
<path d="M210.871 290.068H34.4762V292.63H210.871V290.068Z" fill="white"/>
<path d="M211.449 295.657C213.826 295.657 215.752 293.732 215.752 291.356C215.752 288.98 213.826 287.055 211.449 287.055C209.072 287.055 207.146 288.98 207.146 291.356C207.146 293.732 209.072 295.657 211.449 295.657Z" fill="white"/>
<path d="M184.975 163.46C190.121 163.457 195.218 164.468 199.973 166.434C204.729 168.401 209.05 171.285 212.69 174.922C216.329 178.558 219.216 182.876 221.185 187.629C223.155 192.382 224.167 197.476 224.165 202.619C224.165 213.002 220.04 222.958 212.694 230.299C205.349 237.642 195.388 241.765 185 241.765C179.856 241.768 174.762 240.755 170.01 238.789C165.256 236.823 160.937 233.94 157.299 230.304C153.661 226.669 150.775 222.353 148.805 217.602C146.837 212.852 145.823 207.761 145.823 202.619C145.822 197.478 146.833 192.388 148.8 187.638C150.766 182.887 153.649 178.571 157.285 174.934C160.921 171.299 165.238 168.414 169.989 166.445C174.739 164.476 179.832 163.462 184.975 163.46Z" fill="#868A91"/>
<path d="M174.373 188.378V217.622C174.373 218.123 174.57 218.603 174.922 218.96C175.274 219.316 175.753 219.521 176.254 219.528C176.608 219.526 176.956 219.428 177.259 219.244L201.415 204.642C201.836 204.38 202.139 203.966 202.258 203.484C202.378 203.004 202.307 202.495 202.059 202.066C201.898 201.802 201.677 201.582 201.415 201.423L177.259 186.717C176.827 186.47 176.318 186.399 175.837 186.522C175.355 186.645 174.941 186.95 174.682 187.374C174.49 187.675 174.383 188.021 174.373 188.378Z" fill="white"/>
<path d="M92.231 386.48H30.3409C28.5617 386.48 27.1201 387.921 27.1201 389.699V442.302C27.1201 444.08 28.5617 445.521 30.3409 445.521H92.231C94.0101 445.521 95.4517 444.08 95.4517 442.302V389.699C95.4517 387.921 94.0101 386.48 92.231 386.48Z" fill="white"/>
<path d="M30.9206 388.667H91.78C92.1588 388.667 92.5234 388.818 92.7913 389.086C93.0593 389.354 93.21 389.718 93.21 390.097V442.159H29.4261V390.097C29.4261 389.718 29.5769 389.354 29.8448 389.086C30.1128 388.818 30.4761 388.667 30.8561 388.667H30.9206Z" fill="#F4F4F4"/>
<path d="M43.211 409.683C47.0965 409.683 50.2452 406.536 50.2452 402.652C50.2452 398.769 47.0965 395.621 43.211 395.621C39.3268 395.621 36.1769 398.769 36.1769 402.652C36.1769 406.536 39.3268 409.683 43.211 409.683Z" fill="#B0B4B9"/>
<path d="M29.4262 442.224V436.069L53.5432 414.899C53.9052 414.582 54.3677 414.401 54.8495 414.387C55.3314 414.373 55.8029 414.526 56.1842 414.822L62.7546 419.973L76.7327 406.915C77.1256 406.547 77.6486 406.346 78.1884 406.359C78.7282 406.371 79.241 406.594 79.6184 406.98L93.1456 420.939V442.224C93.1456 442.566 93.0091 442.894 92.7681 443.135C92.5259 443.377 92.1987 443.512 91.8573 443.512H30.65C30.3189 443.495 30.0085 443.352 29.7804 443.113C29.5524 442.873 29.4249 442.555 29.4262 442.224Z" fill="#B0B4B9"/>
<path d="M54.4966 324.013H34.2573C30.3151 324.013 27.1201 327.207 27.1201 331.147V353.579C27.1201 357.519 30.3151 360.713 34.2573 360.713H54.4966C58.4375 360.713 61.6338 357.519 61.6338 353.579V331.147C61.6338 327.207 58.4375 324.013 54.4966 324.013Z" fill="#61656D"/>
<path d="M378.479 261.791H539.993C540.341 261.789 540.685 261.857 541.007 261.988C541.329 262.12 541.622 262.314 541.869 262.56C542.115 262.805 542.311 263.097 542.445 263.418C542.578 263.738 542.647 264.083 542.647 264.431C542.647 265.134 542.368 265.809 541.869 266.306C541.372 266.804 540.697 267.084 539.993 267.084H378.479C377.774 267.084 377.099 266.804 376.602 266.306C376.104 265.809 375.825 265.134 375.825 264.431C375.825 264.083 375.893 263.738 376.027 263.418C376.16 263.097 376.356 262.805 376.603 262.56C376.849 262.314 377.142 262.12 377.464 261.988C377.786 261.857 378.131 261.789 378.479 261.791Z" fill="#B2B6BB"/>
<path d="M378.479 280.991H539.993C540.341 280.99 540.685 281.057 541.007 281.188C541.329 281.321 541.622 281.514 541.869 281.76C542.115 282.004 542.311 282.297 542.445 282.617C542.578 282.939 542.647 283.283 542.647 283.631C542.647 284.334 542.368 285.009 541.869 285.507C541.372 286.004 540.697 286.283 539.993 286.283H378.479C377.774 286.283 377.099 286.004 376.602 285.507C376.104 285.009 375.825 284.334 375.825 283.631C375.825 283.283 375.893 282.939 376.027 282.617C376.16 282.297 376.356 282.004 376.603 281.76C376.849 281.514 377.142 281.321 377.464 281.188C377.786 281.057 378.131 280.99 378.479 280.991Z" fill="#B2B6BB"/>
<path d="M378.479 300.178H468.66C469.008 300.176 469.352 300.243 469.674 300.376C469.996 300.507 470.288 300.702 470.536 300.947C470.782 301.192 470.978 301.483 471.112 301.805C471.244 302.126 471.314 302.47 471.314 302.818C471.314 303.522 471.034 304.197 470.536 304.694C470.039 305.191 469.363 305.47 468.66 305.47H378.479C377.774 305.47 377.099 305.191 376.602 304.694C376.104 304.197 375.825 303.522 375.825 302.818C375.825 302.47 375.893 302.126 376.027 301.805C376.16 301.483 376.356 301.192 376.603 300.947C376.849 300.702 377.142 300.507 377.464 300.376C377.786 300.243 378.131 300.176 378.479 300.178Z" fill="#B2B6BB"/>
<path d="M555.543 127.767H379.87C377.636 127.767 375.825 129.578 375.825 131.811V242.965C375.825 245.198 377.636 247.009 379.87 247.009H555.543C557.777 247.009 559.588 245.198 559.588 242.965V131.811C559.588 129.578 557.777 127.767 555.543 127.767Z" fill="#B2B6BB"/>
<path d="M467.655 161.401C471.069 161.399 474.45 162.069 477.604 163.373C480.757 164.678 483.624 166.591 486.038 169.003C488.452 171.415 490.367 174.279 491.674 177.431C492.981 180.584 493.653 183.961 493.653 187.374C493.655 190.786 492.983 194.166 491.678 197.32C490.372 200.473 488.458 203.339 486.042 205.752C483.628 208.165 480.761 210.08 477.606 211.384C474.451 212.69 471.069 213.361 467.655 213.36C460.764 213.36 454.154 210.623 449.281 205.752C444.408 200.882 441.67 194.274 441.67 187.387C441.669 183.974 442.339 180.595 443.645 177.443C444.95 174.291 446.863 171.425 449.276 169.012C451.689 166.599 454.555 164.684 457.708 163.379C460.862 162.073 464.241 161.401 467.655 161.401Z" fill="#868A91"/>
<path d="M459.758 177.935V197.315C459.766 197.534 459.83 197.747 459.945 197.935C460.058 198.123 460.219 198.279 460.41 198.387C460.601 198.496 460.817 198.554 461.036 198.555C461.256 198.556 461.473 198.502 461.665 198.396L477.704 188.7C477.991 188.516 478.192 188.225 478.265 187.891C478.338 187.558 478.275 187.21 478.091 186.923C477.989 186.77 477.857 186.638 477.704 186.537L461.665 176.853C461.517 176.772 461.353 176.721 461.184 176.703C461.016 176.683 460.844 176.699 460.682 176.746C460.519 176.795 460.367 176.874 460.235 176.981C460.103 177.088 459.994 177.219 459.913 177.368C459.821 177.543 459.768 177.737 459.758 177.935Z" fill="white"/>
<path d="M610.966 266.373H656.521V271.704H610.966C610.277 271.687 609.621 271.403 609.139 270.909C608.659 270.416 608.388 269.754 608.39 269.064C608.376 268.366 608.638 267.692 609.121 267.187C609.605 266.683 610.268 266.39 610.966 266.373Z" fill="#B2B6BB"/>
<path d="M610.965 285.535H656.519V290.828H610.965C610.276 290.811 609.621 290.525 609.139 290.032C608.657 289.539 608.388 288.877 608.388 288.188C608.384 287.496 608.652 286.832 609.134 286.336C609.616 285.839 610.274 285.552 610.965 285.535Z" fill="#B2B6BB"/>
<path d="M610.965 304.695H656.519V309.987H610.965C610.276 309.971 609.621 309.685 609.139 309.192C608.657 308.698 608.388 308.037 608.388 307.348C608.384 306.656 608.652 305.992 609.134 305.496C609.616 304.999 610.274 304.712 610.965 304.695Z" fill="#B2B6BB"/>
<path opacity="0.7" d="M612.358 127.767H656.521V246.841H612.358C611.286 246.837 610.259 246.41 609.5 245.653C608.743 244.895 608.315 243.869 608.312 242.798V131.811C608.315 130.739 608.743 129.713 609.5 128.954C610.259 128.197 611.286 127.77 612.358 127.767Z" fill="#B2B6BB"/>
<path d="M482.831 415.337H377.551C376.598 415.337 375.825 416.11 375.825 417.063C375.825 418.015 376.598 418.788 377.551 418.788H482.831C483.785 418.788 484.558 418.015 484.558 417.063C484.558 416.11 483.785 415.337 482.831 415.337Z" fill="#B2B6BB"/>
<path d="M377.551 427.842H482.831C483.058 427.842 483.282 427.887 483.492 427.973C483.701 428.06 483.892 428.187 484.051 428.347C484.212 428.508 484.339 428.698 484.426 428.907C484.513 429.117 484.558 429.341 484.558 429.567C484.558 429.794 484.513 430.018 484.426 430.228C484.339 430.437 484.212 430.627 484.051 430.787C483.892 430.948 483.701 431.075 483.492 431.162C483.282 431.248 483.058 431.293 482.831 431.293H377.551C377.324 431.293 377.099 431.248 376.89 431.162C376.68 431.075 376.491 430.948 376.33 430.787C376.17 430.627 376.043 430.437 375.956 430.228C375.869 430.018 375.825 429.794 375.825 429.567C375.825 429.11 376.007 428.671 376.33 428.347C376.655 428.023 377.093 427.842 377.551 427.842Z" fill="#B2B6BB"/>
<path d="M377.551 440.397H436.311C436.768 440.397 437.207 440.579 437.531 440.902C437.855 441.226 438.037 441.665 438.037 442.123C438.037 442.58 437.855 443.019 437.531 443.342C437.207 443.666 436.768 443.848 436.311 443.848H377.551C377.093 443.848 376.655 443.666 376.33 443.342C376.007 443.019 375.825 442.58 375.825 442.123C375.825 441.665 376.007 441.226 376.33 440.902C376.655 440.579 377.093 440.397 377.551 440.397Z" fill="#B2B6BB"/>
<path opacity="0.7" d="M492.97 324.863H378.466C377.008 324.863 375.825 326.045 375.825 327.503V399.949C375.825 401.407 377.008 402.589 378.466 402.589H492.97C494.429 402.589 495.611 401.407 495.611 399.949V327.503C495.611 326.045 494.429 324.863 492.97 324.863Z" fill="white"/>
<path d="M445.136 349.136H426.314C423.452 349.136 421.135 351.454 421.135 354.313V373.126C421.135 375.985 423.452 378.303 426.314 378.303H445.136C447.996 378.303 450.315 375.985 450.315 373.126V354.313C450.315 351.454 447.996 349.136 445.136 349.136Z" fill="#B2B6BB"/>
<path d="M431.247 358.419V369.287C431.247 369.475 431.321 369.656 431.454 369.788C431.587 369.921 431.767 369.996 431.955 369.996C432.087 369.994 432.215 369.958 432.329 369.893L441.347 364.459C441.427 364.41 441.496 364.347 441.552 364.271C441.606 364.195 441.646 364.108 441.668 364.018C441.688 363.927 441.692 363.833 441.677 363.74C441.661 363.649 441.629 363.56 441.579 363.48C441.522 363.385 441.442 363.305 441.347 363.248L432.329 357.814C432.25 357.765 432.161 357.732 432.069 357.716C431.977 357.702 431.882 357.705 431.792 357.726C431.7 357.748 431.614 357.787 431.539 357.842C431.463 357.896 431.399 357.966 431.35 358.046C431.284 358.16 431.249 358.288 431.247 358.419Z" fill="white"/>
<path d="M519.431 429.927H641.691C642.221 429.927 642.73 430.137 643.107 430.51C643.484 430.885 643.697 431.392 643.7 431.923C643.7 432.456 643.489 432.967 643.112 433.343C642.734 433.72 642.224 433.931 641.691 433.931H519.431C518.897 433.931 518.386 433.72 518.01 433.343C517.632 432.967 517.421 432.456 517.421 431.923C517.425 431.392 517.637 430.885 518.014 430.51C518.391 430.137 518.9 429.927 519.431 429.927Z" fill="#B2B6BB"/>
<path d="M519.431 444.451H641.691C642.224 444.451 642.734 444.663 643.112 445.039C643.489 445.416 643.7 445.928 643.7 446.46C643.697 446.99 643.484 447.499 643.107 447.872C642.73 448.246 642.221 448.455 641.691 448.455H519.431C518.9 448.455 518.391 448.246 518.014 447.872C517.637 447.499 517.425 446.99 517.421 446.46C517.421 445.928 517.632 445.416 518.01 445.039C518.386 444.663 518.897 444.451 519.431 444.451Z" fill="#B2B6BB"/>
<path opacity="0.7" d="M653.453 324.863H520.487C518.793 324.863 517.421 326.236 517.421 327.928V412.053C517.421 413.747 518.793 415.118 520.487 415.118H653.453C655.146 415.118 656.519 413.747 656.519 412.053V327.928C656.519 326.236 655.146 324.863 653.453 324.863Z" fill="white"/>
<path d="M597.901 353.065H576.052C572.729 353.065 570.035 355.756 570.035 359.079V380.918C570.035 384.239 572.729 386.932 576.052 386.932H597.901C601.224 386.932 603.918 384.239 603.918 380.918V359.079C603.918 355.756 601.224 353.065 597.901 353.065Z" fill="#B2B6BB"/>
<path d="M581.785 363.83V376.463C581.781 376.571 581.799 376.679 581.837 376.781C581.876 376.881 581.934 376.974 582.008 377.054C582.082 377.132 582.171 377.195 582.27 377.24C582.368 377.284 582.475 377.31 582.583 377.312C582.759 377.324 582.931 377.274 583.073 377.171L593.521 370.861C593.705 370.744 593.835 370.561 593.886 370.35C593.937 370.137 593.902 369.915 593.792 369.728C593.73 369.615 593.636 369.521 593.521 369.457L583.034 363.148C582.846 363.038 582.622 363.006 582.41 363.059C582.198 363.112 582.015 363.246 581.901 363.431C581.827 363.552 581.787 363.69 581.785 363.83Z" fill="white"/>
<path d="M124.941 105.526V544.259C124.938 545.601 125.201 546.929 125.713 548.169C126.225 549.408 126.976 550.534 127.923 551.485C128.872 552.434 129.996 553.187 131.236 553.702C132.474 554.217 133.802 554.482 135.144 554.484H770.714C773.42 554.484 776.022 553.408 777.942 551.494C779.862 549.579 780.944 546.981 780.944 544.272V105.526C780.944 102.818 779.874 100.221 777.955 98.3058C776.035 96.391 773.433 95.3145 770.727 95.3145H135.157C132.448 95.3183 129.852 96.3949 127.936 98.3097C126.022 100.224 124.944 102.819 124.941 105.526Z" fill="#416848"/>
<path opacity="0.3" d="M124.941 105.526V544.259C124.938 545.601 125.201 546.929 125.713 548.169C126.225 549.408 126.976 550.534 127.923 551.485C128.872 552.434 129.996 553.187 131.236 553.702C132.474 554.217 133.802 554.482 135.144 554.484H770.714C773.42 554.484 776.022 553.408 777.942 551.494C779.862 549.579 780.944 546.981 780.944 544.272V105.526C780.944 102.818 779.874 100.221 777.955 98.3058C776.035 96.391 773.433 95.3145 770.727 95.3145H135.157C132.448 95.3183 129.852 96.3949 127.936 98.3097C126.022 100.224 124.944 102.819 124.941 105.526Z" fill="white"/>
<path opacity="0.3" d="M124.941 105.526V544.259C124.938 545.601 125.201 546.929 125.713 548.169C126.225 549.408 126.976 550.534 127.923 551.485C128.872 552.434 129.996 553.187 131.236 553.702C132.474 554.217 133.802 554.482 135.144 554.484H770.714C773.42 554.484 776.022 553.408 777.942 551.494C779.862 549.579 780.944 546.981 780.944 544.272V105.526C780.944 102.818 779.874 100.221 777.955 98.3058C776.035 96.391 773.433 95.3145 770.727 95.3145H135.157C132.448 95.3183 129.852 96.3949 127.936 98.3097C126.022 100.224 124.944 102.819 124.941 105.526Z" fill="white"/>
<path d="M728.625 95.29L726.822 125.86H780.931V105.527C780.931 102.819 779.848 100.222 777.942 98.3058C776.022 96.391 773.42 95.3158 770.714 95.3158L728.625 95.29Z" fill="#21252B"/>
<path d="M117.236 105.526V544.272C117.234 545.615 117.497 546.947 118.011 548.187C118.524 549.428 119.278 550.556 120.228 551.506C121.178 552.455 122.306 553.209 123.548 553.723C124.79 554.235 126.121 554.499 127.465 554.497H763.023C765.729 554.497 768.331 553.421 770.251 551.506C772.157 549.592 773.24 546.993 773.24 544.285V105.526C773.24 102.818 772.157 100.221 770.251 98.3058C768.331 96.391 765.729 95.3145 763.023 95.3145H127.452C124.744 95.3183 122.147 96.3949 120.232 98.3097C118.316 100.224 117.239 102.819 117.236 105.526Z" fill="#416848"/>
<path opacity="0.7" d="M117.236 105.526V544.272C117.234 545.615 117.497 546.947 118.011 548.187C118.524 549.428 119.278 550.556 120.228 551.506C121.178 552.455 122.306 553.209 123.548 553.723C124.79 554.235 126.121 554.499 127.465 554.497H763.023C765.729 554.497 768.331 553.421 770.251 551.506C772.157 549.592 773.24 546.993 773.24 544.285V105.526C773.24 102.818 772.157 100.221 770.251 98.3058C768.331 96.391 765.729 95.3145 763.023 95.3145H127.452C124.744 95.3183 122.147 96.3949 120.232 98.3097C118.316 100.224 117.239 102.819 117.236 105.526Z" fill="white"/>
<path d="M671.36 148.048H222.451C219.726 148.048 217.517 150.256 217.517 152.98V172.734C217.517 175.457 219.726 177.666 222.451 177.666H671.36C674.091 177.666 676.295 175.457 676.295 172.734V152.98C676.295 150.256 674.091 148.048 671.36 148.048Z" fill="white"/>
<path d="M662.033 158.736C661.273 157.972 660.307 157.442 659.263 157.211C658.207 156.979 657.111 157.055 656.107 157.429C655.089 157.804 654.213 158.462 653.569 159.324C652.925 160.185 652.538 161.214 652.461 162.288C652.383 163.361 652.628 164.433 653.144 165.377C653.659 166.32 654.445 167.095 655.385 167.607C656.339 168.12 657.408 168.348 658.477 168.267C659.559 168.184 660.577 167.795 661.44 167.145L664.558 170.274L665.64 169.193L662.509 166.063C663.334 164.99 663.733 163.657 663.643 162.31C663.553 160.963 662.986 159.693 662.033 158.736ZM660.951 165.587C660.384 166.157 659.649 166.548 658.864 166.705C658.065 166.863 657.24 166.782 656.493 166.474C655.746 166.165 655.115 165.642 654.664 164.97C654.213 164.299 653.981 163.51 653.981 162.703C653.981 161.894 654.213 161.105 654.664 160.434C655.115 159.763 655.746 159.239 656.493 158.93C657.24 158.622 658.065 158.541 658.864 158.699C659.649 158.856 660.384 159.246 660.951 159.818C661.711 160.584 662.136 161.621 662.136 162.703C662.136 163.783 661.711 164.82 660.951 165.587Z" fill="#416848"/>
<path d="M728.625 157.987H712.006V159.622H728.625V157.987Z" fill="#416848"/>
<path d="M728.625 163.807H712.006V165.443H728.625V163.807Z" fill="#416848"/>
<path d="M728.625 169.627H712.006V171.262H728.625V169.627Z" fill="#416848"/>
<path d="M773.24 105.526C773.24 102.818 772.157 100.221 770.251 98.3058C768.331 96.391 765.729 95.3145 763.023 95.3145H127.452C124.741 95.3183 122.143 96.3974 120.227 98.3135C118.311 100.231 117.236 102.829 117.236 105.539V125.923H773.24V105.526Z" fill="#3F4249"/>
<path d="M165.946 148.048H146.828C143.924 148.048 141.572 150.4 141.572 153.302V172.412C141.572 175.313 143.924 177.666 146.828 177.666H165.946C168.849 177.666 171.202 175.313 171.202 172.412V153.302C171.202 150.4 168.849 148.048 165.946 148.048Z" fill="#416848"/>
<path d="M151.852 157.473V168.522C151.852 168.714 151.928 168.896 152.063 169.032C152.199 169.167 152.383 169.243 152.573 169.243C152.705 169.242 152.834 169.205 152.947 169.14L162.081 163.616C162.251 163.531 162.381 163.381 162.442 163.2C162.502 163.018 162.488 162.821 162.403 162.65C162.335 162.511 162.222 162.397 162.081 162.328L152.947 156.804C152.866 156.755 152.776 156.723 152.682 156.708C152.588 156.694 152.492 156.698 152.401 156.721C152.308 156.743 152.222 156.784 152.144 156.841C152.068 156.896 152.004 156.967 151.955 157.048C151.876 157.176 151.84 157.325 151.852 157.473Z" fill="white"/>
<path opacity="0.5" d="M455.905 197.353H147.176C144.08 197.353 141.572 199.861 141.572 202.955V399.355C141.572 402.448 144.08 404.957 147.176 404.957H455.905C458.997 404.957 461.509 402.448 461.509 399.355V202.955C461.509 199.861 458.997 197.353 455.905 197.353Z" fill="#416848"/>
<path opacity="0.8" d="M580.728 197.353H483.513C482.276 197.353 481.271 198.357 481.271 199.594V261.108C481.271 262.345 482.276 263.348 483.513 263.348H580.728C581.965 263.348 582.97 262.345 582.97 261.108V199.594C582.97 198.357 581.965 197.353 580.728 197.353Z" fill="white"/>
<path opacity="0.8" d="M580.728 278.956H483.513C482.276 278.956 481.271 279.96 481.271 281.197V342.711C481.271 343.948 482.276 344.951 483.513 344.951H580.728C581.965 344.951 582.97 343.948 582.97 342.711V281.197C582.97 279.96 581.965 278.956 580.728 278.956Z" fill="white"/>
<path opacity="0.8" d="M580.728 360.557H483.513C482.276 360.557 481.271 361.56 481.271 362.797V424.311C481.271 425.549 482.276 426.552 483.513 426.552H580.728C581.965 426.552 582.97 425.549 582.97 424.311V362.797C582.97 361.56 581.965 360.557 580.728 360.557Z" fill="white"/>
<path opacity="0.8" d="M580.728 442.157H483.513C482.276 442.157 481.271 443.16 481.271 444.398V505.911C481.271 507.149 482.276 508.152 483.513 508.152H580.728C581.965 508.152 582.97 507.149 582.97 505.911V444.398C582.97 443.16 581.965 442.157 580.728 442.157Z" fill="white"/>
<g opacity="0.8">
<path opacity="0.8" d="M601.895 197.353H741.032C741.805 197.353 742.539 197.66 743.093 198.206C743.634 198.751 743.944 199.491 743.944 200.264C743.944 201.032 743.634 201.77 743.093 202.312C742.539 202.856 741.805 203.161 741.032 203.161H601.895C601.122 203.161 600.388 202.856 599.847 202.312C599.293 201.77 598.984 201.032 598.984 200.264C598.984 199.491 599.293 198.751 599.834 198.206C600.388 197.66 601.122 197.353 601.895 197.353Z" fill="white"/>
<path opacity="0.8" d="M601.895 218.406H741.032C741.805 218.406 742.539 218.713 743.093 219.259C743.634 219.805 743.944 220.545 743.944 221.316C743.944 222.086 743.634 222.823 743.093 223.366C742.539 223.908 741.805 224.214 741.032 224.214H601.895C601.122 224.214 600.388 223.908 599.847 223.366C599.293 222.823 598.984 222.086 598.984 221.316C598.984 220.545 599.293 219.805 599.834 219.259C600.388 218.713 601.122 218.406 601.895 218.406Z" fill="white"/>
<path opacity="0.8" d="M601.895 239.447H679.013C679.786 239.447 680.52 239.754 681.074 240.3C681.615 240.846 681.925 241.586 681.925 242.357C681.925 243.127 681.615 243.864 681.061 244.407C680.52 244.949 679.786 245.255 679.013 245.255H601.895C601.122 245.255 600.388 244.949 599.847 244.407C599.293 243.864 598.984 243.127 598.984 242.357C598.984 241.586 599.293 240.846 599.834 240.3C600.388 239.754 601.122 239.447 601.895 239.447Z" fill="white"/>
</g>
<g opacity="0.8">
<path opacity="0.8" d="M601.895 278.956H741.032C741.805 278.956 742.539 279.26 743.093 279.804C743.634 280.347 743.944 281.084 743.944 281.854C743.944 282.625 743.634 283.365 743.093 283.911C742.539 284.457 741.805 284.764 741.032 284.764H601.895C601.122 284.764 600.388 284.457 599.834 283.911C599.293 283.365 598.984 282.625 598.984 281.854C598.984 281.084 599.293 280.347 599.847 279.804C600.388 279.26 601.122 278.956 601.895 278.956Z" fill="white"/>
<path opacity="0.8" d="M601.895 299.972H741.032C741.805 299.972 742.539 300.278 743.093 300.824C743.634 301.37 743.944 302.111 743.944 302.882C743.944 303.652 743.634 304.388 743.093 304.932C742.539 305.474 741.805 305.779 741.032 305.779H601.895C601.122 305.779 600.388 305.474 599.847 304.932C599.293 304.388 598.984 303.652 598.984 302.882C598.984 302.111 599.293 301.37 599.834 300.824C600.388 300.278 601.122 299.972 601.895 299.972Z" fill="white"/>
<path opacity="0.8" d="M601.895 321.063H679.013C679.786 321.063 680.52 321.369 681.074 321.915C681.615 322.461 681.925 323.202 681.925 323.973C681.925 324.743 681.615 325.48 681.061 326.023C680.52 326.565 679.786 326.87 679.013 326.87H601.895C601.122 326.87 600.388 326.565 599.847 326.023C599.293 325.48 598.984 324.743 598.984 323.973C598.984 323.202 599.293 322.461 599.834 321.915C600.388 321.369 601.122 321.063 601.895 321.063Z" fill="white"/>
</g>
<g opacity="0.8">
<path opacity="0.8" d="M601.895 360.557H741.032C741.805 360.557 742.539 360.862 743.093 361.404C743.634 361.947 743.944 362.684 743.944 363.454C743.944 364.225 743.634 364.966 743.093 365.512C742.539 366.058 741.805 366.364 741.032 366.364H601.895C601.122 366.364 600.388 366.058 599.834 365.512C599.293 364.966 598.984 364.225 598.984 363.454C598.984 362.684 599.293 361.947 599.847 361.404C600.388 360.862 601.122 360.557 601.895 360.557Z" fill="white"/>
<path opacity="0.8" d="M601.895 381.609H741.032C741.805 381.609 742.539 381.917 743.093 382.462C743.634 383.008 743.944 383.748 743.944 384.52C743.944 385.29 743.634 386.026 743.093 386.57C742.539 387.113 741.805 387.417 741.032 387.417H601.895C601.122 387.417 600.388 387.113 599.847 386.57C599.293 386.026 598.984 385.29 598.984 384.52C598.984 383.748 599.293 383.008 599.834 382.462C600.388 381.917 601.122 381.609 601.895 381.609Z" fill="white"/>
<path opacity="0.8" d="M601.895 402.663H679.013C679.786 402.663 680.52 402.97 681.074 403.516C681.615 404.062 681.925 404.802 681.925 405.574C681.925 406.344 681.615 407.08 681.061 407.624C680.52 408.166 679.786 408.471 679.013 408.471H601.895C601.122 408.471 600.388 408.166 599.847 407.624C599.293 407.08 598.984 406.344 598.984 405.574C598.984 404.802 599.293 404.062 599.834 403.516C600.388 402.97 601.122 402.663 601.895 402.663Z" fill="white"/>
</g>
<g opacity="0.8">
<path opacity="0.8" d="M601.895 442.157H741.032C741.805 442.157 742.539 442.462 743.093 443.005C743.634 443.548 743.944 444.285 743.944 445.055C743.944 445.826 743.634 446.566 743.093 447.112C742.539 447.658 741.805 447.965 741.032 447.965H601.895C601.122 447.965 600.388 447.658 599.834 447.112C599.293 446.566 598.984 445.826 598.984 445.055C598.984 444.285 599.293 443.548 599.847 443.005C600.388 442.462 601.122 442.157 601.895 442.157Z" fill="white"/>
<path opacity="0.8" d="M601.895 463.211H741.032C741.805 463.211 742.539 463.518 743.093 464.064C743.634 464.608 743.944 465.349 743.944 466.121C743.944 466.89 743.634 467.627 743.093 468.17C742.539 468.714 741.805 469.019 741.032 469.019H601.895C601.122 469.019 600.388 468.714 599.847 468.17C599.293 467.627 598.984 466.89 598.984 466.121C598.984 465.349 599.293 464.608 599.834 464.064C600.388 463.518 601.122 463.211 601.895 463.211Z" fill="white"/>
<path opacity="0.8" d="M601.895 484.264H679.013C679.786 484.264 680.52 484.57 681.074 485.116C681.615 485.662 681.925 486.403 681.925 487.174C681.925 487.944 681.615 488.681 681.061 489.224C680.52 489.766 679.786 490.071 679.013 490.071H601.895C601.122 490.071 600.388 489.766 599.847 489.224C599.293 488.681 598.984 487.944 598.984 487.174C598.984 486.403 599.293 485.662 599.834 485.116C600.388 484.57 601.122 484.264 601.895 484.264Z" fill="white"/>
</g>
<g opacity="0.8">
<path opacity="0.8" d="M415.374 475.15H187.718C186.196 475.15 184.961 476.383 184.961 477.905V478.201C184.961 479.723 186.196 480.957 187.718 480.957H415.374C416.897 480.957 418.131 479.723 418.131 478.201V477.905C418.131 476.383 416.897 475.15 415.374 475.15Z" fill="white"/>
<path opacity="0.8" d="M415.374 496.203H187.718C186.196 496.203 184.961 497.437 184.961 498.959V499.255C184.961 500.777 186.196 502.011 187.718 502.011H415.374C416.897 502.011 418.131 500.777 418.131 499.255V498.959C418.131 497.437 416.897 496.203 415.374 496.203Z" fill="white"/>
<path opacity="0.8" d="M315.595 517.256H187.718C186.196 517.256 184.961 518.49 184.961 520.012V520.308C184.961 521.83 186.196 523.064 187.718 523.064H315.595C317.118 523.064 318.352 521.83 318.352 520.308V520.012C318.352 518.49 317.118 517.256 315.595 517.256Z" fill="white"/>
</g>
<g opacity="0.8">
<path opacity="0.8" d="M601.895 523.76H741.032C741.805 523.76 742.539 524.065 743.093 524.609C743.634 525.151 743.944 525.888 743.944 526.658C743.944 527.429 743.634 528.169 743.093 528.715C742.539 529.261 741.805 529.568 741.032 529.568H601.895C601.122 529.568 600.388 529.261 599.834 528.715C599.293 528.169 598.984 527.429 598.984 526.658C598.984 525.888 599.293 525.151 599.847 524.609C600.388 524.065 601.122 523.76 601.895 523.76Z" fill="white"/>
<path opacity="0.8" d="M601.895 544.814H741.032C741.805 544.814 742.539 545.121 743.093 545.667C743.634 546.211 743.944 546.952 743.944 547.724C743.944 548.493 743.634 549.231 743.093 549.773C742.539 550.317 741.805 550.622 741.032 550.622H601.895C601.122 550.622 600.388 550.317 599.847 549.773C599.293 549.231 598.984 548.493 598.984 547.724C598.984 546.952 599.293 546.211 599.834 545.667C600.388 545.121 601.122 544.814 601.895 544.814Z" fill="white"/>
</g>
<path opacity="0.8" d="M582.97 554.485V526.001C582.97 525.707 582.918 525.415 582.802 525.143C582.686 524.872 582.519 524.624 582.313 524.417C582.107 524.208 581.862 524.044 581.591 523.932C581.321 523.818 581.024 523.76 580.728 523.76H483.513C482.92 523.76 482.353 523.996 481.928 524.417C481.503 524.837 481.271 525.407 481.271 526.001V554.485H582.97Z" fill="white"/>
<path d="M177.333 387.445V396.794L185.077 392.12L177.333 387.445Z" fill="white"/>
<path d="M197.755 396.794L205.484 392.12L197.755 387.445V396.794Z" fill="white"/>
<path d="M205.484 387.445V392.12V396.794H207.443V387.445H205.484Z" fill="white"/>
<path d="M164.077 396.794L156.347 392.12L164.077 387.445V396.794Z" fill="white"/>
<path d="M156.348 387.445V392.12V396.794H154.403V387.445H156.348Z" fill="white"/>
<path d="M452.091 377.155H150.989V378.43H452.091V377.155Z" fill="white"/>
<path d="M327.448 376.512H150.989V379.074H327.448V376.512Z" fill="#416848"/>
<path d="M328.028 382.101C330.404 382.101 332.33 380.175 332.33 377.8C332.33 375.425 330.404 373.5 328.028 373.5C325.652 373.5 323.725 375.425 323.725 377.8C323.725 380.175 325.652 382.101 328.028 382.101Z" fill="#416848"/>
<path d="M311.099 286.345H291.981C289.077 286.345 286.725 288.698 286.725 291.599V310.709C286.725 313.61 289.077 315.962 291.981 315.962H311.099C314.002 315.962 316.356 313.61 316.356 310.709V291.599C316.356 288.698 314.002 286.345 311.099 286.345Z" fill="white"/>
<path d="M297.004 295.76V306.808C297.004 306.999 297.08 307.183 297.215 307.318C297.351 307.453 297.535 307.529 297.725 307.529C297.857 307.527 297.986 307.492 298.099 307.426L307.233 301.902C307.405 301.816 307.533 301.666 307.594 301.485C307.654 301.304 307.64 301.106 307.555 300.936C307.487 300.796 307.374 300.682 307.233 300.614L298.138 295.154C298.03 295.078 297.901 295.033 297.768 295.026C297.635 295.018 297.503 295.048 297.385 295.109C297.268 295.172 297.17 295.266 297.103 295.381C297.036 295.496 297.001 295.627 297.004 295.76Z" fill="#416848"/>
<path opacity="0.5" d="M536.024 224.304H528.217C527.032 224.304 526.079 225.26 526.079 226.441V234.245C526.079 235.426 527.032 236.382 528.217 236.382H536.024C537.21 236.382 538.163 235.426 538.163 234.245V226.441C538.163 225.26 537.21 224.304 536.024 224.304Z" fill="#416848"/>
<path opacity="0.8" d="M530.266 228.154V232.648C530.266 232.727 530.291 232.801 530.356 232.858C530.407 232.913 530.485 232.944 530.562 232.944H530.717L534.44 230.691C534.478 230.67 534.504 230.642 534.53 230.61C534.543 230.577 534.569 230.541 534.569 230.504C534.581 230.465 534.581 230.425 534.569 230.387C534.569 230.348 534.556 230.311 534.53 230.279L534.44 230.189L530.717 227.935C530.678 227.914 530.639 227.9 530.6 227.894C530.562 227.887 530.523 227.89 530.485 227.899C530.446 227.909 530.407 227.926 530.382 227.951C530.356 227.974 530.33 228.003 530.304 228.038C530.278 228.074 530.266 228.113 530.266 228.154Z" fill="white"/>
<path opacity="0.5" d="M536.024 305.907H528.217C527.032 305.907 526.079 306.865 526.079 308.044V315.848C526.079 317.029 527.032 317.985 528.217 317.985H536.024C537.21 317.985 538.163 317.029 538.163 315.848V308.044C538.163 306.865 537.21 305.907 536.024 305.907Z" fill="#416848"/>
<path opacity="0.8" d="M530.266 309.757V314.251C530.266 314.29 530.278 314.328 530.291 314.364C530.304 314.4 530.33 314.433 530.356 314.461C530.382 314.488 530.407 314.51 530.446 314.524C530.484 314.54 530.523 314.547 530.562 314.547H530.717L534.44 312.294C534.478 312.273 534.504 312.246 534.53 312.214C534.543 312.182 534.569 312.144 534.569 312.107C534.581 312.068 534.581 312.028 534.569 311.99C534.569 311.951 534.556 311.915 534.53 311.882L534.44 311.792L530.717 309.538C530.678 309.517 530.639 309.503 530.6 309.497C530.562 309.492 530.523 309.493 530.485 309.502C530.446 309.512 530.407 309.529 530.382 309.554C530.356 309.577 530.33 309.606 530.304 309.641C530.278 309.677 530.266 309.716 530.266 309.757Z" fill="white"/>
<path opacity="0.5" d="M536.024 387.508H528.217C527.032 387.508 526.079 388.465 526.079 389.646V397.449C526.079 398.629 527.032 399.587 528.217 399.587H536.024C537.21 399.587 538.163 398.629 538.163 397.449V389.646C538.163 388.465 537.21 387.508 536.024 387.508Z" fill="#416848"/>
<path opacity="0.8" d="M530.266 391.397V395.891C530.266 395.97 530.291 396.046 530.356 396.101C530.407 396.157 530.485 396.188 530.562 396.188H530.717L534.44 393.934C534.478 393.913 534.504 393.886 534.53 393.854C534.543 393.822 534.569 393.786 534.569 393.747C534.581 393.709 534.581 393.67 534.569 393.631C534.569 393.593 534.556 393.555 534.53 393.522L534.44 393.432L530.717 391.178C530.678 391.158 530.639 391.144 530.6 391.138C530.562 391.132 530.523 391.133 530.485 391.144C530.446 391.153 530.407 391.171 530.382 391.194C530.356 391.218 530.33 391.248 530.304 391.281C530.278 391.317 530.266 391.357 530.266 391.397Z" fill="white"/>
<path opacity="0.5" d="M536.024 469.111H528.217C527.032 469.111 526.079 470.068 526.079 471.249V479.053C526.079 480.232 527.032 481.19 528.217 481.19H536.024C537.21 481.19 538.163 480.232 538.163 479.053V471.249C538.163 470.068 537.21 469.111 536.024 469.111Z" fill="#416848"/>
<path opacity="0.8" d="M530.266 472.96V477.467C530.266 477.507 530.278 477.546 530.291 477.582C530.304 477.618 530.33 477.652 530.356 477.677C530.382 477.704 530.42 477.725 530.459 477.738C530.497 477.749 530.536 477.755 530.575 477.751C530.626 477.764 530.665 477.764 530.717 477.751L534.44 475.497C534.478 475.477 534.504 475.45 534.53 475.417C534.543 475.385 534.569 475.349 534.569 475.31C534.581 475.272 534.581 475.232 534.569 475.193C534.569 475.155 534.556 475.119 534.53 475.085C534.504 475.049 534.478 475.018 534.44 474.995L530.717 472.742C530.678 472.721 530.639 472.707 530.6 472.702C530.562 472.695 530.523 472.697 530.485 472.707C530.446 472.716 530.407 472.733 530.382 472.757C530.356 472.78 530.33 472.811 530.304 472.845C530.278 472.881 530.266 472.921 530.266 472.96Z" fill="white"/>
<path d="M426.982 389.311H428.657V386.118H431.839V384.457H426.982V389.311Z" fill="white"/>
<path d="M437.289 384.457V386.118H440.471V389.311H442.145V384.457H437.289Z" fill="white"/>
<path d="M440.471 397.449H437.289V399.124H442.145V394.269H440.471V397.449Z" fill="white"/>
<path d="M428.657 394.269H426.982V399.124H431.839V397.449H428.657V394.269Z" fill="white"/>
<path d="M417.822 384.507H391.335V399.109H417.822V384.507Z" fill="white"/>
<path opacity="0.5" d="M365.504 435.822H187.847C186.254 435.822 184.961 437.113 184.961 438.706V443.999C184.961 445.592 186.254 446.883 187.847 446.883H365.504C367.098 446.883 368.39 445.592 368.39 443.999V438.706C368.39 437.113 367.098 435.822 365.504 435.822Z" fill="#416848"/>
<path d="M165.907 426.552H146.789C143.886 426.552 141.533 428.904 141.533 431.805V450.915C141.533 453.816 143.886 456.169 146.789 456.169H165.907C168.811 456.169 171.164 453.816 171.164 450.915V431.805C171.164 428.904 168.811 426.552 165.907 426.552Z" fill="white"/>
<path d="M165.676 445.777H147.435V450.361H165.676V445.777Z" fill="#416848"/>
<path opacity="0.5" d="M161.424 433.711H151.685V442.996H161.424V433.711Z" fill="#416848"/>
<path opacity="0.7" d="M460.555 431.124H437.997C437.214 431.124 436.58 431.758 436.58 432.541V449.448C436.58 450.23 437.214 450.865 437.997 450.865H460.555C461.341 450.865 461.972 450.23 461.972 449.448V432.541C461.972 431.758 461.341 431.124 460.555 431.124Z" fill="white"/>
<path d="M450.159 445.12C449.901 445.303 449.605 445.401 449.296 445.401C448.986 445.401 448.677 445.303 448.432 445.12C444.722 442.429 443.06 438.682 445.315 437.021C445.614 436.838 445.946 436.715 446.293 436.66C446.642 436.606 446.99 436.62 447.337 436.704C447.672 436.786 447.994 436.934 448.278 437.142C448.561 437.349 448.806 437.609 448.986 437.909C448.986 437.948 448.986 437.986 448.986 438.025C449.012 438.059 449.038 438.087 449.064 438.11C449.102 438.132 449.141 438.149 449.167 438.156C449.205 438.165 449.257 438.165 449.296 438.159C449.334 438.151 449.36 438.137 449.399 438.115L449.489 438.025C449.656 437.716 449.875 437.443 450.159 437.222C450.429 437 450.739 436.835 451.074 436.735C451.408 436.636 451.769 436.605 452.117 436.642C452.465 436.681 452.8 436.788 453.109 436.956H453.225C455.505 438.682 453.843 442.429 450.159 445.12Z" fill="#416848"/>
<path d="M141.572 116.949C145.072 116.949 147.91 114.114 147.91 110.614C147.91 107.115 145.072 104.278 141.572 104.278C138.071 104.278 135.233 107.115 135.233 110.614C135.233 114.114 138.071 116.949 141.572 116.949Z" fill="#416848"/>
<path d="M164.413 116.949C167.913 116.949 170.752 114.114 170.752 110.614C170.752 107.115 167.913 104.278 164.413 104.278C160.913 104.278 158.075 107.115 158.075 110.614C158.075 114.114 160.913 116.949 164.413 116.949Z" fill="#DADDDF"/>
<path d="M187.242 116.949C190.742 116.949 193.58 114.114 193.58 110.614C193.58 107.115 190.742 104.278 187.242 104.278C183.741 104.278 180.903 107.115 180.903 110.614C180.903 114.114 183.741 116.949 187.242 116.949Z" fill="#21252B"/>
</svg>
