<svg width="727" height="555" fill="none" xmlns="http://www.w3.org/2000/svg"><path d="M7.844 49.367v407.637a9.49 9.49 0 009.495 9.491h590.5a9.492 9.492 0 009.495-9.491V49.367a9.495 9.495 0 00-9.495-9.491H17.351a9.493 9.493 0 00-9.507 9.479v.012z" fill="#868A91"/><path d="M617.322 49.343a9.49 9.49 0 00-9.495-9.491H17.339a9.503 9.503 0 00-8.773 5.86 9.496 9.496 0 00-.722 3.63v18.91H617.31l.012-18.91z" fill="#3F4249"/><path d="M.683 49.367v407.637a9.508 9.508 0 009.507 9.491h590.487a9.492 9.492 0 009.496-9.491V49.343a9.51 9.51 0 00-9.507-9.49H10.178a9.498 9.498 0 00-9.495 9.49v.024z" fill="#D8DBDD"/><path d="M610.173 49.343a9.51 9.51 0 00-9.507-9.49H10.178a9.498 9.498 0 00-9.495 9.49v18.91h609.466l.024-18.91z" fill="#61656D"/><path d="M23.29 59.947a5.89 5.89 0 100-11.777 5.89 5.89 0 100 11.777z" fill="#B2B6BB"/><path d="M44.507 59.947a5.89 5.89 0 100-11.777 5.89 5.89 0 100 11.777z" fill="#fff"/><path d="M65.736 59.947a5.89 5.89 0 100-11.777 5.89 5.89 0 100 11.777z" fill="#000"/><path d="M547.322 88.875H130.239a4.586 4.586 0 00-4.586 4.584v18.347a4.585 4.585 0 004.586 4.584h417.083a4.583 4.583 0 004.586-4.584V93.459a4.584 4.584 0 00-4.586-4.584z" fill="#B2B6BB"/><path d="M538.653 98.796a5.204 5.204 0 00-5.51-1.215 5.21 5.21 0 00-3.383 4.515 5.206 5.206 0 005.592 5.557 5.214 5.214 0 002.75-1.042l2.91 2.908.994-1.005-2.898-2.909a5.19 5.19 0 00-.455-6.81zm-1.006 6.367a3.797 3.797 0 01-5.842-.574 3.797 3.797 0 011.705-5.614 3.803 3.803 0 014.137.826 3.802 3.802 0 010 5.362z" fill="#3F4249"/><path d="M98.161 97.346H82.715v1.52h15.446v-1.52zM98.161 102.756H82.715v1.52h15.446v-1.52zM98.161 108.164H82.715v1.52h15.446v-1.52z" fill="#868A91"/><path d="M45.931 88.875H28.174a4.885 4.885 0 00-4.885 4.883v17.749a4.884 4.884 0 004.885 4.883h17.758a4.884 4.884 0 004.885-4.883V93.758a4.885 4.885 0 00-4.886-4.883z" fill="#61656D"/><path d="M32.845 97.624v10.269a.67.67 0 001.018.574l8.49-5.134a.67.67 0 000-1.197l-8.49-5.123a.696.696 0 00-.247-.09.694.694 0 00-.262.013.68.68 0 00-.413.305.603.603 0 00-.096.383z" fill="#fff"/><path d="M317.056 131.05H30.223a5.206 5.206 0 00-5.208 5.206v182.467a5.208 5.208 0 005.208 5.207h286.833a5.208 5.208 0 005.208-5.207V136.256a5.207 5.207 0 00-5.208-5.206z" fill="#61656D"/><g opacity=".7"><path opacity=".7" d="M309.104 340.315H79.578a2.693 2.693 0 00-2.694 2.693v.012a2.693 2.693 0 002.694 2.693h229.526a2.693 2.693 0 002.694-2.693v-.012a2.694 2.694 0 00-2.694-2.693z" fill="#3F4249"/><path opacity=".7" d="M309.104 359.871H79.578a2.693 2.693 0 00-2.694 2.693v.012a2.693 2.693 0 002.694 2.693h229.526a2.693 2.693 0 002.694-2.693v-.012a2.694 2.694 0 00-2.694-2.693zM208.584 379.439H79.578a2.693 2.693 0 00-2.694 2.693v.012a2.693 2.693 0 002.694 2.693h129.006a2.694 2.694 0 002.694-2.693v-.012a2.694 2.694 0 00-2.694-2.693z" fill="#B2B6BB"/></g><g opacity=".7" fill="#fff"><path opacity=".7" d="M110.34 419.376h166.986a1.946 1.946 0 011.392.571 1.95 1.95 0 01.572 1.392 1.946 1.946 0 01-1.211 1.817 1.964 1.964 0 01-.753.146H110.34a1.957 1.957 0 01-1.818-1.21 1.953 1.953 0 01-.146-.753 1.939 1.939 0 01.571-1.392 1.957 1.957 0 011.393-.571zM110.34 437.581h106.686a1.942 1.942 0 011.392.571 1.957 1.957 0 01.572 1.392 1.932 1.932 0 01-.572 1.39 1.963 1.963 0 01-1.392.573H110.34a1.959 1.959 0 01-1.964-1.963 1.947 1.947 0 011.964-1.963z"/></g><path d="M311.799 309.21H32.043v1.484H311.8v-1.484z" fill="#3F4249"/><path d="M195.988 308.766H32.043v2.382h163.945v-2.382z" fill="#fff"/><path d="M196.526 313.96a3.997 3.997 0 100-7.995 3.998 3.998 0 100 7.995z" fill="#fff"/><path d="M171.92 191.093a36.427 36.427 0 0125.759 10.653 36.373 36.373 0 0110.665 25.743 36.367 36.367 0 01-10.662 25.726 36.4 36.4 0 01-25.738 10.657 36.407 36.407 0 01-33.641-22.457 36.391 36.391 0 0133.617-50.322z" fill="#868A91"/><path d="M162.067 214.253v27.18a1.769 1.769 0 001.748 1.771c.329-.001.652-.092.934-.263l22.451-13.572a1.77 1.77 0 00.598-2.394 1.781 1.781 0 00-.598-.598l-22.451-13.668a1.77 1.77 0 00-2.395.61c-.178.28-.278.602-.287.934zM85.722 398.373H28.2a2.992 2.992 0 00-2.994 2.992v48.89a2.992 2.992 0 002.994 2.992h57.522a2.992 2.992 0 002.993-2.992v-48.89a2.992 2.992 0 00-2.993-2.992z" fill="#fff"/><path d="M28.738 400.406h56.565a1.33 1.33 0 011.33 1.329v48.387H27.349v-48.387a1.33 1.33 0 011.329-1.329h.06z" fill="#F4F4F4"/><path d="M40.161 419.939a6.536 6.536 0 100-13.07 6.536 6.536 0 100 13.07zM27.35 450.184v-5.721l22.414-19.676a1.933 1.933 0 012.455-.072l6.107 4.787 12.991-12.135a1.91 1.91 0 011.353-.517c.502.01.979.217 1.33.577L86.571 430.4v19.784a1.198 1.198 0 01-1.198 1.196H28.487a1.194 1.194 0 01-1.137-1.196z" fill="#B0B4B9"/><path d="M50.65 340.315H31.84a6.631 6.631 0 00-6.634 6.631v20.848a6.631 6.631 0 006.634 6.631h18.81a6.632 6.632 0 006.634-6.631v-20.848a6.632 6.632 0 00-6.634-6.631z" fill="#61656D"/><path d="M351.767 282.485h150.116a2.458 2.458 0 012.466 2.453c0 .654-.259 1.281-.723 1.743a2.462 2.462 0 01-1.743.723H351.767a2.463 2.463 0 01-2.466-2.466 2.437 2.437 0 01.723-1.739 2.44 2.44 0 011.743-.714zM351.767 300.329h150.116a2.474 2.474 0 011.743.715 2.447 2.447 0 01.723 1.739 2.464 2.464 0 01-2.466 2.465H351.767a2.465 2.465 0 01-2.278-3.407c.123-.298.305-.57.535-.797.229-.229.5-.408.8-.531.299-.122.62-.185.943-.184zM351.767 318.162h83.817a2.455 2.455 0 012.466 2.454 2.465 2.465 0 01-2.466 2.465h-83.817a2.466 2.466 0 01-2.278-3.406 2.448 2.448 0 012.278-1.513zM516.335 157.92H353.061a3.758 3.758 0 00-3.76 3.758v103.309a3.758 3.758 0 003.76 3.758h163.274a3.759 3.759 0 003.76-3.758V161.678a3.759 3.759 0 00-3.76-3.758z" fill="#B2B6BB"/><path d="M434.65 189.179a24.156 24.156 0 0117.086 7.066 24.147 24.147 0 01.003 34.155 24.163 24.163 0 01-17.089 7.071 24.153 24.153 0 01-17.077-7.071 24.129 24.129 0 01-7.074-17.069 24.159 24.159 0 017.069-17.077 24.158 24.158 0 0117.082-7.075z" fill="#868A91"/><path d="M427.31 204.547v18.012a1.2 1.2 0 001.188 1.152c.205.002.406-.049.584-.147l14.908-9.012a1.193 1.193 0 000-2.011l-14.908-9a1.2 1.2 0 00-1.628.479 1.288 1.288 0 00-.144.527z" fill="#fff"/><path d="M567.847 286.743h42.339v4.955h-42.339a2.453 2.453 0 01-2.395-2.453 2.45 2.45 0 012.395-2.502zM567.845 304.553h42.34v4.919h-42.34a2.454 2.454 0 01-2.394-2.453 2.456 2.456 0 012.394-2.466zM567.845 322.361h42.34v4.919h-42.34a2.459 2.459 0 01-2.394-2.454 2.451 2.451 0 012.394-2.465z" fill="#B2B6BB"/><path opacity=".7" d="M569.14 157.92h41.046v110.67H569.14a3.767 3.767 0 01-3.76-3.758V161.678a3.77 3.77 0 013.76-3.758z" fill="#B2B6BB"/><path d="M448.755 425.194h-97.85a1.604 1.604 0 100 3.207h97.85a1.604 1.604 0 100-3.207zM350.905 436.816h97.85a1.616 1.616 0 011.134.469 1.615 1.615 0 01.471 1.135 1.599 1.599 0 01-.471 1.133c-.148.15-.326.269-.52.349-.195.08-.403.122-.614.122h-97.85a1.613 1.613 0 01-1.135-.471 1.598 1.598 0 01-.469-1.133c0-.425.169-.833.469-1.135a1.61 1.61 0 011.135-.469zM350.905 448.485h54.613a1.607 1.607 0 011.604 1.604 1.6 1.6 0 01-.47 1.133 1.6 1.6 0 01-1.134.471h-54.613a1.603 1.603 0 01-1.604-1.604c0-.425.169-.833.469-1.135a1.61 1.61 0 011.135-.469z" fill="#B2B6BB"/><path opacity=".7" d="M458.178 341.105H351.755a2.454 2.454 0 00-2.454 2.454v67.333a2.454 2.454 0 002.454 2.453h106.423a2.454 2.454 0 002.455-2.453v-67.333a2.455 2.455 0 00-2.455-2.454z" fill="#fff"/><path d="M413.72 363.665h-17.494a4.812 4.812 0 00-4.813 4.811v17.486a4.811 4.811 0 004.813 4.811h17.494a4.813 4.813 0 004.814-4.811v-17.486a4.814 4.814 0 00-4.814-4.811z" fill="#B2B6BB"/><path d="M400.811 372.293v10.101a.656.656 0 00.658.659.722.722 0 00.348-.096l8.381-5.051a.661.661 0 00.191-.174.664.664 0 00-.191-.951l-8.381-5.05a.652.652 0 00-.734.026.635.635 0 00-.176.189.721.721 0 00-.096.347z" fill="#fff"/><path d="M482.771 438.754h113.632a1.87 1.87 0 011.868 1.855c0 .496-.197.971-.548 1.32a1.865 1.865 0 01-1.32.547H482.771a1.865 1.865 0 01-1.868-1.867c.004-.493.202-.965.551-1.313a1.874 1.874 0 011.317-.542zM482.771 452.253h113.632a1.87 1.87 0 011.868 1.867 1.871 1.871 0 01-1.868 1.855H482.771c-.493 0-.966-.195-1.317-.542a1.874 1.874 0 01-.551-1.313 1.87 1.87 0 011.868-1.867z" fill="#B2B6BB"/><path opacity=".7" d="M607.335 341.105H483.753a2.85 2.85 0 00-2.85 2.849v78.188a2.848 2.848 0 002.85 2.848h123.582a2.848 2.848 0 002.849-2.848v-78.188a2.85 2.85 0 00-2.849-2.849z" fill="#fff"/><path d="M555.704 367.317h-20.308a5.59 5.59 0 00-5.592 5.589v20.298a5.59 5.59 0 005.592 5.589h20.308a5.59 5.59 0 005.592-5.589v-20.298a5.59 5.59 0 00-5.592-5.589z" fill="#B2B6BB"/><path d="M540.725 377.322v11.741a.75.75 0 00.207.549.783.783 0 00.244.174c.091.041.19.065.291.067a.692.692 0 00.455-.132l9.711-5.864a.778.778 0 00.251-1.053.634.634 0 00-.251-.252l-9.747-5.864a.78.78 0 00-1.054.263.742.742 0 00-.107.371z" fill="#fff"/><path d="M116.123 137.248v407.769a9.48 9.48 0 005.85 8.777 9.49 9.49 0 003.633.726H716.32a9.514 9.514 0 006.717-2.779 9.48 9.48 0 002.79-6.712V137.248a9.472 9.472 0 00-2.778-6.711 9.521 9.521 0 00-6.717-2.78H125.618a9.51 9.51 0 00-6.711 2.784 9.496 9.496 0 00-2.784 6.707z" fill="#416848"/><path opacity=".3" d="M116.123 137.248v407.769a9.48 9.48 0 005.85 8.777 9.49 9.49 0 003.633.726H716.32a9.514 9.514 0 006.717-2.779 9.48 9.48 0 002.79-6.712V137.248a9.472 9.472 0 00-2.778-6.711 9.521 9.521 0 00-6.717-2.78H125.618a9.51 9.51 0 00-6.711 2.784 9.496 9.496 0 00-2.784 6.707z" fill="#fff"/><path opacity=".3" d="M116.123 137.248v407.769a9.48 9.48 0 005.85 8.777 9.49 9.49 0 003.633.726H716.32a9.514 9.514 0 006.717-2.779 9.48 9.48 0 002.79-6.712V137.248a9.472 9.472 0 00-2.778-6.711 9.521 9.521 0 00-6.717-2.78H125.618a9.51 9.51 0 00-6.711 2.784 9.496 9.496 0 00-2.784 6.707z" fill="#fff"/><path d="M677.202 127.735l-1.677 28.412h50.29v-18.898a9.526 9.526 0 00-2.777-6.712 9.523 9.523 0 00-6.718-2.779l-39.118-.023z" fill="#21252B"/><path d="M108.961 137.248v407.781a9.477 9.477 0 00.721 3.638 9.48 9.48 0 005.147 5.146 9.507 9.507 0 003.64.719h590.703a9.516 9.516 0 006.717-2.779 9.525 9.525 0 002.778-6.712V137.248a9.523 9.523 0 00-2.778-6.711 9.521 9.521 0 00-6.717-2.78H118.457a9.507 9.507 0 00-9.496 9.491z" fill="#416848"/><path opacity=".7" d="M108.961 137.248v407.781a9.477 9.477 0 00.721 3.638 9.48 9.48 0 005.147 5.146 9.507 9.507 0 003.64.719h590.703a9.516 9.516 0 006.717-2.779 9.525 9.525 0 002.778-6.712V137.248a9.523 9.523 0 00-2.778-6.711 9.521 9.521 0 00-6.717-2.78H118.457a9.507 9.507 0 00-9.496 9.491z" fill="#fff"/><path d="M623.978 176.769H206.751a4.585 4.585 0 00-4.586 4.584v18.36a4.585 4.585 0 004.586 4.583h417.227a4.58 4.58 0 004.586-4.583v-18.36a4.58 4.58 0 00-4.586-4.584z" fill="#fff"/><path d="M615.309 186.703a5.2 5.2 0 00-5.508-1.215c-.946.349-1.76.96-2.359 1.761a5.23 5.23 0 00-1.03 2.755 5.225 5.225 0 002.718 4.944 5.213 5.213 0 005.628-.43l2.898 2.909 1.006-1.006-2.91-2.908a5.163 5.163 0 001.054-3.489 5.19 5.19 0 00-1.497-3.321zm-1.006 6.367a3.794 3.794 0 01-1.94 1.039 3.788 3.788 0 01-4.538-3.72c0-.751.216-1.485.635-2.108a3.794 3.794 0 015.843-.573 3.805 3.805 0 011.102 2.681 3.807 3.807 0 01-1.102 2.681zM677.202 186.007h-15.446v1.52h15.446v-1.52zM677.202 191.416h-15.446v1.52h15.446v-1.52zM677.202 196.825h-15.446v1.52h15.446v-1.52z" fill="#416848"/><path d="M718.667 137.248a9.523 9.523 0 00-2.778-6.711 9.521 9.521 0 00-6.717-2.78H118.457a9.515 9.515 0 00-6.715 2.788 9.499 9.499 0 00-2.781 6.715v18.946h609.706v-18.958z" fill="#3F4249"/><path d="M154.234 176.769h-17.769a4.883 4.883 0 00-4.885 4.884v17.76a4.883 4.883 0 004.885 4.883h17.769a4.885 4.885 0 004.886-4.883v-17.76a4.885 4.885 0 00-4.886-4.884z" fill="#416848"/><path d="M141.135 185.529v10.269a.669.669 0 001.018.574l8.489-5.134a.668.668 0 00.299-.898.66.66 0 00-.299-.299l-8.489-5.134a.667.667 0 00-.508-.077.657.657 0 00-.414.304.656.656 0 00-.096.395z" fill="#fff"/><path opacity=".5" d="M423.729 222.595H136.788a5.206 5.206 0 00-5.208 5.206V410.34a5.207 5.207 0 005.208 5.206h286.941a5.21 5.21 0 005.208-5.206V227.801a5.209 5.209 0 00-5.208-5.206z" fill="#416848"/><path opacity=".8" d="M539.742 222.595h-90.354a2.083 2.083 0 00-2.083 2.082v57.172c0 1.151.934 2.083 2.083 2.083h90.354c1.15 0 2.084-.932 2.084-2.083v-57.172c0-1.15-.934-2.082-2.084-2.082zM539.742 298.438h-90.354a2.084 2.084 0 00-2.083 2.083v57.172c0 1.15.934 2.083 2.083 2.083h90.354c1.15 0 2.084-.933 2.084-2.083v-57.172c0-1.15-.934-2.083-2.084-2.083zM539.742 374.28h-90.354a2.083 2.083 0 00-2.083 2.082v57.173c0 1.15.934 2.082 2.083 2.082h90.354c1.15 0 2.084-.932 2.084-2.082v-57.173c0-1.15-.934-2.082-2.084-2.082zM539.742 450.121h-90.354a2.084 2.084 0 00-2.083 2.083v57.172c0 1.15.934 2.082 2.083 2.082h90.354c1.15 0 2.084-.932 2.084-2.082v-57.172c0-1.15-.934-2.083-2.084-2.083z" fill="#fff"/><g opacity=".8" fill="#fff"><path opacity=".8" d="M559.416 222.595h129.317c.718 0 1.4.285 1.915.792.503.506.791 1.194.791 1.912 0 .715-.288 1.401-.791 1.905a2.728 2.728 0 01-1.915.788H559.416a2.68 2.68 0 01-1.904-.788 2.664 2.664 0 01-.803-1.905c0-.718.288-1.406.791-1.912a2.724 2.724 0 011.916-.792zM559.416 242.161h129.317c.718 0 1.4.285 1.915.793a2.72 2.72 0 01.791 1.912c0 .716-.288 1.401-.791 1.906a2.732 2.732 0 01-1.915.787H559.416a2.683 2.683 0 01-1.904-.787 2.666 2.666 0 01-.803-1.906c0-.717.288-1.405.791-1.912a2.721 2.721 0 011.916-.793zM559.416 261.718h71.675c.718 0 1.401.284 1.915.792.503.507.791 1.196.791 1.912s-.288 1.401-.803 1.906a2.681 2.681 0 01-1.903.787h-71.675a2.683 2.683 0 01-1.904-.787 2.666 2.666 0 01-.803-1.906c0-.716.288-1.405.791-1.912a2.72 2.72 0 011.916-.792z"/></g><g opacity=".8" fill="#fff"><path opacity=".8" d="M559.416 298.438h129.317c.718 0 1.4.283 1.915.788.503.505.791 1.19.791 1.905 0 .717-.288 1.405-.791 1.913a2.724 2.724 0 01-1.915.792H559.416a2.724 2.724 0 01-1.916-.792 2.725 2.725 0 01-.791-1.913c0-.715.288-1.4.803-1.905a2.68 2.68 0 011.904-.788zM559.416 317.971h129.317c.718 0 1.4.284 1.915.792.503.507.791 1.196.791 1.912s-.288 1.401-.791 1.906a2.732 2.732 0 01-1.915.787H559.416a2.683 2.683 0 01-1.904-.787 2.666 2.666 0 01-.803-1.906c0-.716.288-1.405.791-1.912a2.72 2.72 0 011.916-.792zM559.416 337.573h71.675c.718 0 1.401.285 1.915.793a2.72 2.72 0 01.791 1.912c0 .716-.288 1.4-.803 1.906a2.685 2.685 0 01-1.903.787h-71.675a2.687 2.687 0 01-1.904-.787 2.668 2.668 0 01-.803-1.906c0-.717.288-1.405.791-1.912a2.721 2.721 0 011.916-.793z"/></g><g opacity=".8" fill="#fff"><path opacity=".8" d="M559.416 374.28h129.317c.718 0 1.4.284 1.915.787.503.505.791 1.19.791 1.906a2.72 2.72 0 01-.791 1.912 2.72 2.72 0 01-1.915.793H559.416a2.721 2.721 0 01-1.916-.793 2.72 2.72 0 01-.791-1.912c0-.716.288-1.401.803-1.906a2.687 2.687 0 011.904-.787zM559.416 393.847h129.317c.718 0 1.4.286 1.915.792.503.507.791 1.196.791 1.913 0 .715-.288 1.4-.791 1.905a2.727 2.727 0 01-1.915.787H559.416a2.68 2.68 0 01-1.904-.787 2.666 2.666 0 01-.803-1.905c0-.717.288-1.406.791-1.913a2.729 2.729 0 011.916-.792zM559.416 413.415h71.675c.718 0 1.401.285 1.915.792.503.508.791 1.196.791 1.913 0 .715-.288 1.4-.803 1.905a2.681 2.681 0 01-1.903.787h-71.675a2.683 2.683 0 01-1.904-.787 2.666 2.666 0 01-.803-1.905c0-.717.288-1.405.791-1.913a2.724 2.724 0 011.916-.792z"/></g><g opacity=".8" fill="#fff"><path opacity=".8" d="M559.416 450.121h129.317c.718 0 1.4.284 1.915.788.503.505.791 1.189.791 1.905 0 .717-.288 1.405-.791 1.913a2.724 2.724 0 01-1.915.792H559.416a2.724 2.724 0 01-1.916-.792 2.725 2.725 0 01-.791-1.913c0-.716.288-1.4.803-1.905a2.684 2.684 0 011.904-.788zM559.416 469.689h129.317c.718 0 1.4.285 1.915.793.503.506.791 1.194.791 1.912 0 .715-.288 1.399-.791 1.904a2.73 2.73 0 01-1.915.789H559.416a2.681 2.681 0 01-1.904-.789 2.664 2.664 0 01-.803-1.904c0-.718.288-1.406.791-1.912a2.721 2.721 0 011.916-.793zM559.416 489.256h71.675c.718 0 1.401.285 1.915.792.503.508.791 1.196.791 1.913 0 .716-.288 1.4-.803 1.905a2.682 2.682 0 01-1.903.788h-71.675a2.684 2.684 0 01-1.904-.788 2.664 2.664 0 01-.803-1.905c0-.717.288-1.405.791-1.913a2.724 2.724 0 011.916-.792z"/></g><g opacity=".8" fill="#fff"><path opacity=".8" d="M386.059 480.785H174.47a2.563 2.563 0 00-2.563 2.561v.275a2.563 2.563 0 002.563 2.562h211.589a2.562 2.562 0 002.562-2.562v-.275a2.562 2.562 0 00-2.562-2.561zM386.059 500.353H174.47a2.563 2.563 0 00-2.563 2.561v.276a2.563 2.563 0 002.563 2.561h211.589a2.562 2.562 0 002.562-2.561v-.276a2.562 2.562 0 00-2.562-2.561zM293.322 519.92H174.47a2.562 2.562 0 00-2.563 2.561v.275a2.563 2.563 0 002.563 2.562h118.852a2.562 2.562 0 002.562-2.562v-.275a2.561 2.561 0 00-2.562-2.561z"/></g><g opacity=".8" fill="#fff"><path opacity=".8" d="M559.416 525.965h129.317c.718 0 1.4.284 1.915.789a2.698 2.698 0 01-1.915 4.609H559.416a2.724 2.724 0 01-1.916-.792 2.725 2.725 0 01-.791-1.913c0-.716.288-1.4.803-1.904a2.681 2.681 0 011.904-.789zM559.416 545.533h129.317c.718 0 1.4.285 1.915.792.503.507.791 1.195.791 1.913 0 .714-.288 1.4-.791 1.904a2.73 2.73 0 01-1.915.789H559.416a2.681 2.681 0 01-1.904-.789 2.664 2.664 0 01-.803-1.904c0-.718.288-1.406.791-1.913a2.724 2.724 0 011.916-.792z"/></g><path opacity=".8" d="M541.826 554.521v-26.473c0-.273-.048-.545-.156-.798a2.171 2.171 0 00-.455-.675 2.056 2.056 0 00-1.473-.61h-90.354c-.551 0-1.078.219-1.473.61s-.61.921-.61 1.473v26.473h94.521z" fill="#fff"/><path d="M164.818 399.271v8.689l7.197-4.345-7.197-4.344zM183.798 407.96l7.184-4.345-7.184-4.344v8.689zM190.982 399.271v8.689h1.82v-8.689h-1.82zM152.497 407.96l-7.185-4.345 7.185-4.344v8.689z" fill="#fff"/><path d="M145.314 399.271v8.689h-1.808v-8.689h1.808zM420.184 389.707H140.333v1.185h279.851v-1.185z" fill="#fff"/><path d="M304.338 389.109H140.333v2.381h164.005v-2.381z" fill="#416848"/><path d="M304.876 394.304a3.998 3.998 0 100-7.995 3.999 3.999 0 100 7.995z" fill="#416848"/><path d="M289.143 305.306h-17.769a4.883 4.883 0 00-4.885 4.883v17.761a4.884 4.884 0 004.885 4.883h17.769a4.884 4.884 0 004.885-4.883v-17.761a4.884 4.884 0 00-4.885-4.883z" fill="#fff"/><path d="M276.043 314.056v10.268a.667.667 0 00.67.671.726.726 0 00.347-.096l8.49-5.134a.672.672 0 00.299-.898.642.642 0 00-.299-.299l-8.454-5.075a.668.668 0 00-.961.211.658.658 0 00-.092.352z" fill="#416848"/><path opacity=".5" d="M498.194 247.643h-7.257a1.984 1.984 0 00-1.987 1.987v7.252c0 1.098.886 1.987 1.987 1.987h7.257a1.984 1.984 0 001.987-1.987v-7.252a1.984 1.984 0 00-1.987-1.987z" fill="#416848"/><path opacity=".8" d="M492.841 251.221v4.177c0 .073.024.143.084.195.048.052.12.081.192.081h.143l3.461-2.095a.264.264 0 00.084-.075c.012-.03.036-.064.036-.098a.184.184 0 000-.109.166.166 0 00-.036-.101l-.084-.084-3.461-2.094a.358.358 0 00-.108-.038.276.276 0 00-.107.004.241.241 0 00-.096.048.547.547 0 00-.072.082.179.179 0 00-.036.107z" fill="#fff"/><path opacity=".5" d="M498.194 323.487h-7.257c-1.101 0-1.987.89-1.987 1.986v7.253c0 1.098.886 1.987 1.987 1.987h7.257a1.984 1.984 0 001.987-1.987v-7.253a1.985 1.985 0 00-1.987-1.986z" fill="#416848"/><path opacity=".8" d="M492.841 327.065v4.177c0 .036.012.072.024.106a.28.28 0 00.06.089.213.213 0 00.084.059.296.296 0 00.108.021h.143l3.461-2.094a.261.261 0 00.084-.074c.012-.03.036-.065.036-.1a.18.18 0 000-.108.168.168 0 00-.036-.101l-.084-.084-3.461-2.094a.361.361 0 00-.108-.039.323.323 0 00-.107.005.229.229 0 00-.096.048.547.547 0 00-.072.082.179.179 0 00-.036.107z" fill="#fff"/><path opacity=".5" d="M498.194 399.329h-7.257c-1.101 0-1.987.89-1.987 1.987v7.253c0 1.096.886 1.986 1.987 1.986h7.257c1.101 0 1.987-.89 1.987-1.986v-7.253a1.985 1.985 0 00-1.987-1.987z" fill="#416848"/><path opacity=".8" d="M492.841 402.944v4.177c0 .073.024.143.084.195.048.051.12.08.192.08h.143l3.461-2.095a.261.261 0 00.084-.074c.012-.03.036-.063.036-.099a.18.18 0 000-.108.174.174 0 00-.036-.102l-.084-.083-3.461-2.095a.33.33 0 00-.108-.037.243.243 0 00-.107.005.216.216 0 00-.096.047.654.654 0 00-.072.081.184.184 0 00-.036.108z" fill="#fff"/><path opacity=".5" d="M498.194 475.173h-7.257a1.984 1.984 0 00-1.987 1.987v7.253c0 1.096.886 1.986 1.987 1.986h7.257c1.101 0 1.987-.89 1.987-1.986v-7.253a1.984 1.984 0 00-1.987-1.987z" fill="#416848"/><path opacity=".8" d="M492.841 478.75v4.189c0 .037.012.073.024.107a.255.255 0 00.156.145c.036.01.072.015.108.012a.243.243 0 00.131 0l3.461-2.095a.261.261 0 00.084-.074c.012-.03.036-.063.036-.099a.184.184 0 000-.109.168.168 0 00-.036-.101.292.292 0 00-.084-.084l-3.461-2.094a.33.33 0 00-.108-.037.243.243 0 00-.107.005.215.215 0 00-.096.046.668.668 0 00-.072.082.181.181 0 00-.036.107z" fill="#fff"/><path d="M396.847 401.005h1.557v-2.968h2.957v-1.544h-4.514v4.512zM406.426 396.493v1.544h2.958v2.968h1.556v-4.512h-4.514zM409.384 408.569h-2.958v1.556h4.514v-4.512h-1.556v2.956zM398.404 405.613h-1.557v4.512h4.514v-1.556h-2.957v-2.956zM388.334 396.54h-24.618v13.571h24.618V396.54z" fill="#fff"/><path opacity=".5" d="M339.708 444.233H174.59a2.682 2.682 0 00-2.683 2.681v4.919a2.682 2.682 0 002.683 2.681h165.118a2.682 2.682 0 002.682-2.681v-4.919a2.681 2.681 0 00-2.682-2.681z" fill="#416848"/><path d="M154.198 435.617h-17.769a4.885 4.885 0 00-4.885 4.883v17.761a4.885 4.885 0 004.885 4.883h17.769a4.885 4.885 0 004.886-4.883V440.5a4.885 4.885 0 00-4.886-4.883z" fill="#fff"/><path d="M153.983 453.485h-16.954v4.261h16.954v-4.261z" fill="#416848"/><path opacity=".5" d="M150.032 442.271h-9.053v8.629h9.053v-8.629z" fill="#416848"/><path opacity=".7" d="M428.051 439.867h-20.966c-.728 0-1.317.589-1.317 1.316v15.715c0 .726.589 1.316 1.317 1.316h20.966c.73 0 1.317-.59 1.317-1.316v-15.715c0-.727-.587-1.316-1.317-1.316z" fill="#fff"/><path d="M418.388 452.875c-.239.17-.515.261-.802.261a1.35 1.35 0 01-.802-.261c-3.449-2.501-4.993-5.984-2.898-7.528a2.485 2.485 0 013.413.826v.108a.628.628 0 00.072.079c.035.02.071.035.095.043a.346.346 0 00.12.002.284.284 0 00.096-.041l.084-.083a2.35 2.35 0 01.622-.747c.252-.206.539-.359.85-.453a2.488 2.488 0 011.892.206h.108c2.119 1.604.575 5.087-2.85 7.588zM131.58 147.865a5.89 5.89 0 100-11.777 5.89 5.89 0 100 11.777z" fill="#416848"/><path d="M152.809 147.865a5.888 5.888 0 100-11.777 5.89 5.89 0 100 11.777z" fill="#DADDDF"/><path d="M174.027 147.865a5.89 5.89 0 100-11.777 5.89 5.89 0 100 11.777z" fill="#21252B"/><path d="M662.438 98.653h-5.698l-2.23.93a33.095 33.095 0 00.548 64.399l1.682.837h5.698a33.093 33.093 0 0033.096-33.097 33.097 33.097 0 00-33.096-33.07z" fill="#416848"/><path opacity=".2" d="M662.438 98.653h-5.698l-2.23.93a33.095 33.095 0 00.548 64.399l1.097.837h6.283a33.093 33.093 0 0033.096-33.097 33.097 33.097 0 00-33.096-33.07z" fill="#000"/><path d="M656.749 98.653h-.009c-18.279 0-33.097 14.818-33.097 33.097v.009c0 18.279 14.818 33.097 33.097 33.097h.009c18.282 0 33.097-14.818 33.097-33.097v-.009c0-18.279-14.815-33.097-33.097-33.097z" fill="#416848"/><path d="M651.312 147.215l-12.853-12.863a1.035 1.035 0 010-1.459l3.857-3.866c.195-.195.459-.303.734-.303.276 0 .54.108.735.303l8.262 8.271 16.497-16.497c.098-.097.214-.176.341-.229a1.072 1.072 0 01.806 0c.127.053.243.132.341.229l3.856 3.857c.102.098.177.213.232.341.047.128.075.264.075.403 0 .137-.028.275-.075.402-.055.128-.13.244-.232.341l-21.089 21.07a1.054 1.054 0 01-1.145.228 1.051 1.051 0 01-.342-.228z" fill="#fff"/><path d="M549.048 0h-5.697l-2.231.93a33.1 33.1 0 00-25.178 32.139 33.112 33.112 0 007.222 20.628 33.11 33.11 0 0018.504 11.632l1.683.837h5.697a33.101 33.101 0 0033.097-33.097 33.1 33.1 0 00-9.703-23.385A33.102 33.102 0 00549.048 0z" fill="#B2B6BB"/><path opacity=".2" d="M549.048 0h-5.697l-2.231.93a33.1 33.1 0 00-25.178 32.139 33.112 33.112 0 007.222 20.628 33.11 33.11 0 0018.504 11.632l1.097.837h6.283a33.101 33.101 0 0033.097-33.097 33.1 33.1 0 00-9.703-23.385A33.102 33.102 0 00549.048 0z" fill="#000"/><path d="M543.268 0h-.01c-18.279 0-33.096 14.818-33.096 33.097v.01c0 18.278 14.817 33.096 33.096 33.096h.01c18.281 0 33.097-14.818 33.097-33.097v-.01C576.365 14.819 561.549 0 543.268 0z" fill="#B2B6BB"/><path d="M522.696 26.903h41.69c.418 0 .815.631 1.115 1.755.292 1.124.46 2.649.46 4.237 0 1.585-.168 3.102-.467 4.22-.293 1.117-.69 1.745-1.108 1.745h-41.69c-.418 0-.815-.628-1.107-1.745-.3-1.118-.467-2.635-.467-4.22 0-1.588.167-3.113.46-4.237.299-1.124.696-1.755 1.114-1.755z" fill="#fff"/></svg>