<svg width="749" height="555" fill="none" xmlns="http://www.w3.org/2000/svg"><path d="M721.193 0H43.233C27.874 0 15.425 5.734 15.425 12.806v529.388c0 7.074 12.45 12.806 27.806 12.806h677.961c15.36 0 27.807-5.732 27.807-12.806V12.806C749 5.734 736.553 0 721.193 0z" fill="#416848"/><path opacity=".2" d="M721.193 0H43.233C27.874 0 15.425 5.734 15.425 12.806v529.388c0 7.074 12.45 12.806 27.806 12.806h677.961c15.36 0 27.807-5.732 27.807-12.806V12.806C749 5.734 736.553 0 721.193 0z" fill="#fff"/><path d="M705.768 0H27.807C12.45 0 0 5.734 0 12.806v529.388C0 549.268 12.45 555 27.807 555h677.961c15.36 0 27.806-5.732 27.806-12.806V12.806C733.574 5.734 721.128 0 705.768 0z" fill="#416848"/><path opacity=".6" d="M705.768 0H27.807C12.45 0 0 5.734 0 12.806v529.388C0 549.268 12.45 555 27.807 555h677.961c15.36 0 27.806-5.732 27.806-12.806V12.806C733.574 5.734 721.128 0 705.768 0z" fill="#fff"/><path d="M670.085 42.824H65.203c-5.719 0-10.356 3.562-10.356 7.954v456.87c0 4.391 4.637 7.954 10.356 7.954h604.882c5.718 0 10.357-3.563 10.357-7.954V50.778c0-4.392-4.639-7.954-10.357-7.954z" fill="#fff"/><path d="M587.631 116.464H261.91a6.82 6.82 0 00-6.821 6.818v.497a6.819 6.819 0 006.821 6.817h325.721a6.816 6.816 0 006.821-6.817v-.497a6.817 6.817 0 00-6.821-6.818zM413.99 169.222H262.15a7.06 7.06 0 00-7.061 7.057v.017a7.06 7.06 0 007.061 7.058h151.84a7.06 7.06 0 007.061-7.058v-.017a7.06 7.06 0 00-7.061-7.057zM587.631 258.4H261.91a6.82 6.82 0 00-6.821 6.818v.497a6.819 6.819 0 006.821 6.817h325.721a6.816 6.816 0 006.821-6.817v-.497a6.817 6.817 0 00-6.821-6.818zM413.99 311.16H262.15a7.06 7.06 0 00-7.061 7.057v.017a7.06 7.06 0 007.061 7.058h151.84a7.06 7.06 0 007.061-7.058v-.017a7.06 7.06 0 00-7.061-7.057zM587.631 400.338H261.91a6.82 6.82 0 00-6.821 6.818v.497a6.819 6.819 0 006.821 6.817h325.721a6.816 6.816 0 006.821-6.817v-.497a6.817 6.817 0 00-6.821-6.818zM413.99 453.096H262.15a7.06 7.06 0 00-7.061 7.057v.017a7.06 7.06 0 007.061 7.058h151.84a7.06 7.06 0 007.061-7.058v-.017a7.06 7.06 0 00-7.061-7.057z" fill="#868A91"/><path d="M173.95 110.69h-59.8a5.826 5.826 0 00-5.828 5.824v75.182a5.826 5.826 0 005.828 5.824h59.8a5.825 5.825 0 005.827-5.824v-75.182a5.825 5.825 0 00-5.827-5.824z" fill="#416848"/><path d="M173.95 110.69h-59.8a5.826 5.826 0 00-5.828 5.824v75.182a5.826 5.826 0 005.828 5.824h59.8a5.825 5.825 0 005.827-5.824v-75.182a5.825 5.825 0 00-5.827-5.824z" fill="#416848"/><path d="M170.23 115.933h-52.361v70.814h52.361v-70.814z" fill="#416848"/><path opacity=".7" d="M170.23 115.933h-52.361v70.814h52.361v-70.814z" fill="#fff"/><path d="M151.806 107.764a1.718 1.718 0 01-1.612-1.113 6.527 6.527 0 00-6.153-4.341 6.524 6.524 0 00-6.153 4.341 1.724 1.724 0 01-1.611 1.113h-8.09a1.714 1.714 0 00-1.714 1.713v9.01a1.711 1.711 0 001.714 1.713h31.726a1.712 1.712 0 001.713-1.713v-9.01a1.71 1.71 0 00-1.713-1.713h-8.107z" fill="#416848"/><path opacity=".5" d="M151.806 107.764a1.718 1.718 0 01-1.612-1.113 6.527 6.527 0 00-6.153-4.341 6.524 6.524 0 00-6.153 4.341 1.724 1.724 0 01-1.611 1.113h-8.09a1.714 1.714 0 00-1.714 1.713v9.01a1.711 1.711 0 001.714 1.713h31.726a1.712 1.712 0 001.713-1.713v-9.01a1.71 1.71 0 00-1.713-1.713h-8.107z" fill="#000"/><path d="M161.078 130.135h-34.057a1.936 1.936 0 000 3.872h34.057a1.936 1.936 0 100-3.872zM161.078 148.051h-34.057a1.936 1.936 0 000 3.872h34.057a1.936 1.936 0 100-3.872zM145.74 165.986h-18.719a1.936 1.936 0 000 3.871h18.719a1.935 1.935 0 100-3.871zM167.966 279.436l-5.296 5.293a28.917 28.917 0 01-8.091 37.017 28.964 28.964 0 01-37.814-2.734 28.918 28.918 0 01-2.679-37.795 28.95 28.95 0 0117.027-10.922 28.967 28.967 0 0120.022 2.888l5.298-5.293a36.378 36.378 0 00-25.42-5.024 36.356 36.356 0 00-22.31 13.169 36.316 36.316 0 002.704 48.316 36.35 36.35 0 0023.641 10.6 36.364 36.364 0 0024.7-7.826 36.33 36.33 0 0013.209-22.277 36.305 36.305 0 00-4.991-25.412z" fill="#416848"/><path d="M158.661 288.788l-5.656 5.653c.394 1.364.59 2.777.583 4.197a16.325 16.325 0 01-10.071 15.095 16.347 16.347 0 01-17.807-3.529 16.327 16.327 0 01-4.475-8.358 16.32 16.32 0 016.943-16.763 16.335 16.335 0 019.076-2.752 14.344 14.344 0 014.216.582l5.656-5.653a23.057 23.057 0 00-9.872-2.175 23.576 23.576 0 00-13.103 3.974 23.567 23.567 0 00-10.027 24.201 23.584 23.584 0 0018.54 18.515 23.6 23.6 0 0013.628-1.348 23.596 23.596 0 0010.58-8.69 23.554 23.554 0 003.966-13.099 23.122 23.122 0 00-2.177-9.85z" fill="#416848"/><path d="M137.255 309.515A10.885 10.885 0 01127.2 302.8a10.859 10.859 0 012.358-11.853 10.883 10.883 0 0111.861-2.357 10.857 10.857 0 014.884 4.005 10.865 10.865 0 011.834 6.043 10.895 10.895 0 01-10.882 10.877zm0-14.491a3.638 3.638 0 00-3.359 2.245 3.635 3.635 0 00.795 3.961 3.646 3.646 0 001.865.99 3.641 3.641 0 003.728-1.559 3.622 3.622 0 00-.471-4.574 3.66 3.66 0 00-2.558-1.063z" fill="#416848"/><path d="M186.907 259.533a2.722 2.722 0 00-.999-1.239 2.725 2.725 0 00-1.519-.474h-6.343v-6.338a2.691 2.691 0 00-.449-1.521 2.706 2.706 0 00-4.196-.398l-10.883 10.878c-.254.25-.458.548-.595.877-.139.33-.211.683-.211 1.041v7.965h-.103l-26.206 26.397a2.72 2.72 0 00.415 4.178c.445.3.968.461 1.504.464a2.774 2.774 0 001.937-.805l26.277-26.277v-.103h7.968a2.686 2.686 0 001.92-.805l10.885-10.877a2.695 2.695 0 00.598-2.963z" fill="#416848"/><path opacity=".5" d="M186.907 259.533a2.722 2.722 0 00-.999-1.239 2.725 2.725 0 00-1.519-.474h-6.343v-6.338a2.691 2.691 0 00-.449-1.521 2.706 2.706 0 00-4.196-.398l-10.883 10.878c-.254.25-.458.548-.595.877-.139.33-.211.683-.211 1.041v7.965h-.103l-26.206 26.397a2.72 2.72 0 00.415 4.178c.445.3.968.461 1.504.464a2.774 2.774 0 001.937-.805l26.277-26.277v-.103h7.968a2.686 2.686 0 001.92-.805l10.885-10.877a2.695 2.695 0 00.598-2.963z" fill="#000"/><path d="M112.847 426.528h9.117a1.816 1.816 0 011.816 1.816v32.82h-12.767v-32.838c.002-.238.052-.474.144-.693.093-.22.23-.418.399-.586a1.827 1.827 0 011.291-.519zM130.603 410.238h9.119c.481 0 .944.191 1.283.532.342.341.534.802.534 1.283v49.094H128.77v-49.094c0-.24.048-.476.138-.699a1.823 1.823 0 011.695-1.116zM148.36 419.352h9.119c.481 0 .944.19 1.285.531.339.341.531.802.531 1.285v39.963h-12.752v-39.963a1.817 1.817 0 011.817-1.816zM166.117 404.638h9.118a1.813 1.813 0 011.817 1.816v54.694h-12.769v-54.694a1.801 1.801 0 01.538-1.29c.17-.17.372-.303.595-.393.223-.09.461-.137.701-.133z" fill="#416848"/><path d="M181.354 459.348h-74.609a.685.685 0 00-.685.685v2.21c0 .379.306.685.685.685h74.609a.684.684 0 00.685-.685v-2.21a.685.685 0 00-.685-.685z" fill="#416848"/><path opacity=".5" d="M181.354 459.348h-74.609a.685.685 0 00-.685.685v2.21c0 .379.306.685.685.685h74.609a.684.684 0 00.685-.685v-2.21a.685.685 0 00-.685-.685z" fill="#000"/></svg>